<?xml version="1.0" encoding="utf-8"?>
<!-- Generator: Adobe Illustrator 16.0.0, SVG Export Plug-In . SVG Version: 6.00 Build 0)  -->
<!DOCTYPE svg PUBLIC "-//W3C//DTD SVG 1.1//EN" "http://www.w3.org/Graphics/SVG/1.1/DTD/svg11.dtd">
<svg version="1.1" xmlns="http://www.w3.org/2000/svg" xmlns:xlink="http://www.w3.org/1999/xlink" x="0px" y="0px" width="540.6px"
	 height="436.8px" viewBox="0 0 540.6 436.8" style="enable-background:new 0 0 540.6 436.8;" xml:space="preserve">
<style type="text/css">
<![CDATA[
	.st0{fill:#AFD9E5;}
	.st1{fill:none;}
	.st2{fill:#E6E7E8;stroke:#000000;stroke-width:4;stroke-linecap:round;stroke-linejoin:round;stroke-miterlimit:2.4142;}
	.st3{display:none;}
	.st4{fill-rule:evenodd;clip-rule:evenodd;fill:url(#SVGID_1_);}
	.st5{fill-rule:evenodd;clip-rule:evenodd;fill:url(#SVGID_2_);}
	.st6{fill-rule:evenodd;clip-rule:evenodd;fill:url(#SVGID_3_);}
]]>
</style>
<g id="CuadrÌcula" class="st3">
</g>
<g id="Capa_1">
</g>
<g id="Escritorio">
</g>
<g id="GuÌas">
</g>
<g id="Page_1">
	<g id="Capa_1_1_">
		
			<linearGradient id="SVGID_1_" gradientUnits="userSpaceOnUse" x1="-8.4683" y1="630.6553" x2="30.901" y2="719.0801" gradientTransform="matrix(4.399 0 0 4.399 215.7464 -2750.262)">
			<stop  offset="0.38" style="stop-color:#0095DA"/>
			<stop  offset="0.62" style="stop-color:#007AB4"/>
		</linearGradient>
		<circle class="st4" cx="265.1" cy="218.5" r="212.8"/>
		
			<radialGradient id="SVGID_2_" cx="-25.0811" cy="631.5723" r="12.0854" gradientTransform="matrix(8.9736 -2.206 1.9357 10.9114 -766.2312 -6879.3325)" gradientUnits="userSpaceOnUse">
			<stop  offset="0" style="stop-color:#FFFFFF"/>
			<stop  offset="1" style="stop-color:#0095DA"/>
		</radialGradient>
		<path class="st5" d="M215.2,13.4c56.5-13.9,108.4,9.4,116,51.9c7.6,42.6-32.1,88.4-88.6,102.2c-56.5,13.9-108.4-9.4-116-51.9
			C119,73,158.7,27.3,215.2,13.4z"/>
		
			<ellipse transform="matrix(-0.2418 -0.9703 0.9703 -0.2418 205.7431 310.5396)" class="st1" cx="224.2" cy="74.9" rx="21.9" ry="33.5"/>
		<path class="st0" d="M56.6,174.9c-0.5,6.9-0.3,13.8,0.5,20.6c2.7-5.4,5.6-10.7,8.8-15.8c-1.2-6.1-1.8-12.2-2-18.2
			c-2,2.3-3.9,4.7-5.8,7.1c0.7-3,1.5-6,2.3-8.9c1.2-1.4,2.3-2.7,3.5-4.1c0.1-2.9,0.3-5.8,0.6-8.6c2.7-7.6,5.8-15.1,9.4-22.3
			c3.5-3.4,7.2-6.6,11-9.8c1.4-4.7,3.1-9.3,5.1-13.9c0.3-0.7,0.6-1.3,0.9-2c-1.2,0.6-2.3,1.3-3.4,1.9c1.6-2.4,3.2-4.8,4.9-7.1
			c0.5-0.3,1-0.5,1.5-0.8c0.8-1.6,1.7-3.2,2.7-4.8c11.4-14.8,24.7-28.1,39.5-39.4l1.2,0c1.8-1.7,3.7-3.4,5.6-5
			C177.3,19.4,219.5,5,265.1,5c8.7,0,17.2,0.5,25.6,1.5c0.5,0.1,1,0.2,1.5,0.3l0.2-0.1c2.1,0.3,4.2,0.6,6.3,0.9
			c-0.4,0.2-0.8,0.4-1.2,0.6c6.8,1.9,13.2,4.3,19.2,7.2c2.4-0.5,4.9-0.9,7.4-1.4c-3.6-1.4-7.4-2.6-11.2-3.7
			c12.8,3,25.2,7.1,37.1,12.2c1.2,0.8,2.5,1.6,3.7,2.4c0.6,0,1.2,0,1.8,0.1c2.9,1.4,5.7,2.8,8.5,4.3c-1.6-0.1-3.2-0.2-4.8-0.2
			c3.9,3,7.6,6.3,11,9.8c4.5,0.6,8.9,1.4,13.4,2.2c6.3,4.2,12.3,8.8,18.1,13.6c1.8,2.4,3.6,4.9,5.2,7.4c1.8,0.6,3.6,1.3,5.4,2
			c2.4,2.3,4.8,4.7,7.1,7.1c-3-1.4-6.2-2.6-9.3-3.9c3.2,5.7,5.8,11.7,7.9,17.8c3.2,1.5,6.3,3.1,9.3,4.8c1.4,0.7,2.7,1.5,4,2.2
			c-3-6.9-6.8-13.6-11.2-20.3c4.7,5,9.1,10.2,13.3,15.6c1.2,2.6,2.4,5.3,3.4,7.9c1.5,0.9,2.9,1.8,4.3,2.7c1.9,2.8,3.7,5.6,5.5,8.5
			c-2.5-1.8-5-3.6-7.7-5.3c1.7,5.2,3.1,10.5,4.1,15.7c0.8,3.9,1.3,7.8,1.7,11.8c3.3,3.2,6.5,6.4,9.6,9.8c1.5,1.6,2.9,3.2,4.4,4.9
			c-1-8-2.6-16.2-5-24.5c2.8,5.4,5.4,10.8,7.8,16.5c0.8,4.4,1.3,8.9,1.7,13.2c1.9,2.3,3.8,4.6,5.6,7c2,6.7,3.8,13.5,5.2,20.5
			c-0.2,7.9-1,15.6-2.1,23c2.1,3.8,4.1,7.8,6.1,11.8c0.1,2.4,0.1,4.8,0.1,7.2c0,0.6,0,1.3,0,1.9c-2.4-5.1-4.8-10-7.3-14.8
			c-1,5.4-2.3,10.7-3.9,15.9c3.5,6.1,6.8,12.5,10.1,19c-0.6,5.5-1.3,11-2.3,16.3c-5.4,10.2-11.4,19.8-17.9,28.8
			c1.2,6.1,2.2,12.3,3.1,18.6c0.3-0.4,0.6-0.7,0.8-1.1c-2.2,5-4.5,10-7.1,14.8c-3.8,4.4-7.8,8.6-11.8,12.7c0.2,2.1,0.3,4.3,0.5,6.4
			c-1.2,1.8-2.4,3.5-3.6,5.2c-0.1-2.7-0.3-5.4-0.5-8.1c-5.9,5.7-12,11-18.3,16c0.3,3.5,0.5,7,0.6,10.6c5.6-4.9,10.9-10,15.9-15.5
			c-6.9,9.3-14.5,18.1-22.8,26.2c-7,5.5-14.4,10.6-22,15.3c0,1.1,0.1,2.3,0.1,3.4c-1.3,0.9-2.5,1.9-3.8,2.8c0-1.3-0.1-2.6-0.1-3.9
			c-8.5,5-17.2,9.5-26.2,13.5c0.1,2,0.2,4.1,0.3,6.1c-1.3,0.6-2.5,1.3-3.8,1.9c-0.1-2.1-0.2-4.2-0.3-6.3c-7.8,3.4-15.7,6.3-23.8,9
			c0.4,2.3,0.8,4.6,1.1,6.9c-1.2,0.4-2.5,0.8-3.7,1.3c-0.4-2.3-0.7-4.6-1.1-7c-8.3,2.6-16.7,4.8-25.1,6.6c1,2.2,2.1,4.4,3.2,6.5
			c-1.3,0.3-2.6,0.5-3.9,0.8c-1.1-2.1-2.1-4.3-3.1-6.5c-8.1,1.6-16.3,2.9-24.4,3.8c1.3,2,2.7,3.9,4.1,5.8c-1.5,0.1-3.1,0.2-4.6,0.3
			c-1.3-1.8-2.6-3.7-3.9-5.6c-10.5,1-21,1.4-31.3,1.1c1,1.3,1.9,2.5,2.9,3.8c-1.8-0.2-3.6-0.4-5.4-0.6c-0.8-1.1-1.6-2.2-2.5-3.3
			c-1.2-0.1-2.5-0.1-3.7-0.2c-7.6-0.5-15.2-1.3-22.5-2.5l0.3,0.4c-14.8-4-29-9.5-42.4-16.4c-1.4-2.7-2.8-5.3-4.1-8
			c-9.1-3.1-17.9-6.7-26.3-11c-6.5-4.9-12.7-10.1-18.5-15.7c3,2.1,6.1,4.2,9.3,6.1c-1.2-4-2.3-8-3.3-12.1
			c-7.1-4.1-13.8-8.6-20.1-13.5c0.4,2.1,0.8,4.2,1.3,6.2c-1.7-2-3.5-4-5.1-6c-0.3-1.4-0.5-2.7-0.8-4.1c-2.8-2.3-5.4-4.8-8-7.3
			c-7-9.7-13.1-20-18.4-30.8c-0.1-2.7-0.3-5.4-0.3-8.1c-3.2-4.4-6.2-9-8.9-13.8c-3-8.3-5.4-16.8-7.4-25.6c0.3,0.9,0.7,1.9,1,2.8
			c0.5-4,1-8,1.7-11.9c-2.4-4.7-4.5-9.5-6.5-14.6c-0.5-4.8-0.8-9.6-1-14.4c2.5,8,5.4,15.5,8.7,22.5c1-5,2.1-10,3.4-14.9
			c-4-8.3-7.1-17-9.1-25.9c-1.1,2.6-2.2,5.2-3.2,7.8c0-3.7,0.2-7.4,0.4-11.1c0.5-1.1,1-2.2,1.5-3.3c-0.3-1.8-0.6-3.7-0.8-5.5
			C54.1,189,55.2,181.8,56.6,174.9L56.6,174.9z M477,167.3l0.2,0.3l0,0l0,0l-0.1,0.1L477,167.3L477,167.3z M483.1,219L483.1,219
			L483.1,219L483.1,219L483.1,219L483.1,219L483.1,219z M483,219.4c0,7.3-0.4,14.5-1.1,21.6l0.2,0.1l-0.3,0.7
			c-3.7,35.2-15.7,67.8-34,96l0,0l-0.1,0.2c-1.7,2.6-3.4,5.1-5.2,7.6l0,0.1l-0.1,0c-7,9.8-14.7,18.9-23.2,27.4
			c-30.8,30.8-70.8,52.4-115.5,60.4C405.3,415.4,482.6,326.5,483,219.4L483,219.4z M303.6,433.6c-1.6,0.3-3.3,0.6-5,0.8
			C300.3,434.2,302,433.9,303.6,433.6L303.6,433.6z M297.8,434.5c-1.4,0.2-2.9,0.4-4.3,0.6C295,435,296.4,434.8,297.8,434.5
			L297.8,434.5z M292.1,435.3c-1.3,0.2-2.5,0.3-3.8,0.4C289.6,435.6,290.8,435.5,292.1,435.3L292.1,435.3z M286.3,436
			c-1.1,0.1-2.2,0.2-3.3,0.3C284.1,436.2,285.2,436.1,286.3,436L286.3,436z M280.6,436.4c-1,0.1-2,0.1-3,0.2
			C278.6,436.6,279.6,436.5,280.6,436.4L280.6,436.4z M274.9,436.8c-0.9,0-1.9,0.1-2.8,0.1C273.1,436.8,274,436.8,274.9,436.8
			L274.9,436.8z M269.2,436.9c-0.9,0-1.8,0-2.6,0C267.5,437,268.3,437,269.2,436.9L269.2,436.9z M263.6,437c-0.9,0-1.7,0-2.6,0
			C261.8,437,262.7,437,263.6,437L263.6,437z M258,436.9c-0.9,0-1.8-0.1-2.7-0.1C256.2,436.8,257.1,436.8,258,436.9L258,436.9z
			 M252.5,436.6c-1-0.1-2-0.1-2.9-0.2C250.6,436.5,251.6,436.6,252.5,436.6L252.5,436.6z M247.1,436.3c-1.1-0.1-2.2-0.2-3.2-0.3
			C245,436.1,246,436.2,247.1,436.3L247.1,436.3z M241.8,435.8c-1.2-0.1-2.5-0.3-3.7-0.4C239.4,435.5,240.6,435.6,241.8,435.8
			L241.8,435.8z M236.6,435.1c-1.4-0.2-2.8-0.4-4.3-0.6C233.8,434.8,235.2,435,236.6,435.1L236.6,435.1z M231.5,434.4
			c-1.7-0.3-3.3-0.5-4.9-0.8C228.2,433.9,229.9,434.2,231.5,434.4L231.5,434.4z M226.5,433.6c-44.7-8-84.7-29.6-115.5-60.4
			c-0.9-0.9-1.7-1.7-2.6-2.6l-0.5-0.4l0-0.1c-23-24-40.7-53.2-50.9-85.7l-0.3,0l0-0.7c-6.3-20.3-9.7-41.9-9.7-64.2
			C47.6,326.5,124.8,415.4,226.5,433.6L226.5,433.6z M47.1,219L47.1,219L47.1,219L47.1,219L47.1,219L47.1,219L47.1,219z M52.5,170
			l-0.3-0.2l0.5-0.6C52.7,169.4,52.6,169.7,52.5,170L52.5,170z M53.9,164c0.1-0.6,0.2-1.2,0.3-1.8l0.2,0
			C54.3,162.9,54.1,163.4,53.9,164L53.9,164z M249.6,0.5C254.8,0.1,260-0.1,265,0C259.8,0,254.7,0.2,249.6,0.5L249.6,0.5z M265.2,0
			c1.2,0,2.4,0,3.6,0C267.6,0,266.4,0,265.2,0L265.2,0z M238.2,58.2c7.5-7.7,15.7-14.7,24.8-20.8c-1.5-0.5-2.9-0.9-4.5-1.3
			c-3,2.7-5.8,5.5-8.5,8.4c-2.7,2.9-5.4,5.8-7.8,8.8C240.8,54.9,239.5,56.5,238.2,58.2L238.2,58.2z M267.1,34.8
			c3.3-2,6.7-4,10.3-5.8c5.1-2.6,10.5-4.9,16.2-7c-0.5-0.2-1-0.5-1.5-0.7c-3-1.4-6.2-2.7-9.6-3.8c-7.3,4.8-14.1,10-20.5,15.6
			C263.7,33.5,265.4,34.1,267.1,34.8L267.1,34.8z M298.5,20.3c3.8-1.2,7.7-2.3,11.8-3.3c-5.6-2.3-11.5-4.3-17.7-5.9
			c-2.1,1.2-4.1,2.5-6.2,3.7c2.4,0.9,4.8,1.9,7.1,3C295.3,18.5,297,19.4,298.5,20.3L298.5,20.3z M331.1,17c-3,0.4-5.9,0.8-8.8,1.3
			c4,2.2,7.7,4.5,11.3,7.1c4.3-0.3,8.5-0.4,12.8-0.4c-2.6-1.6-5.3-3.1-8.1-4.6C335.9,19.2,333.5,18.1,331.1,17L331.1,17z
			 M316.2,19.6c-4.6,1-9,2.1-13.2,3.4c2.6,1.7,5.1,3.5,7.4,5.4c5.6-1.1,11.3-1.8,17-2.4c-2.9-1.9-5.9-3.7-9.1-5.3
			C317.6,20.3,316.9,19.9,316.2,19.6L316.2,19.6z M298.1,24.5c-6.8,2.3-13.1,5-19,8c-2.6,1.3-5.2,2.7-7.7,4.2c1.5,0.7,3,1.5,4.5,2.4
			c8.4-3.8,16.9-6.6,25.5-8.8c1.4-0.3,2.7-0.7,4.1-1C303.2,27.6,300.7,26,298.1,24.5L298.1,24.5z M267.5,39.1
			c-9.6,6.1-18.1,13.3-25.9,21.2c9.8-7.9,19.9-14.2,30-19.2c-0.9-0.5-1.8-0.9-2.7-1.4C268.4,39.5,267.9,39.3,267.5,39.1L267.5,39.1z
			 M239.6,62.2l-0.4,0.4l-2.6-2.5c-0.6,0.7-1.1,1.5-1.6,2.2l-1-0.7l-2.1-1.5l0,0l0,0c2.3-3.2,4.8-6.4,7.3-9.5c2.6-3.1,5.3-6.1,8-9
			c2.2-2.3,4.4-4.5,6.7-6.7c-2.3-0.4-4.6-0.7-7-1c-2.4,3.2-4.7,6.4-6.7,9.6c-1.8,2.8-3.4,5.6-4.8,8.4c-1.4,2.8-2.7,5.5-3.7,8.2
			l-0.2-0.1l-3.5-1.3l0,0v0c0.1-0.3,0.2-0.6,0.4-1l-2.9-0.2l0.1,0.8l-2.8,0.2L223,59l-3.6,1.3c-2.8-8.1-6-14.9-9.5-21.2
			c-2.3,0.8-4.6,1.7-6.8,2.7c1.7,1.6,3.4,3.3,5,5c1.9,1.9,3.7,3.9,5.5,5.9c1.7,2,3.4,3.9,4.9,5.8h0l0,0l-3.1,2.4l0,0l0,0
			c-1.5-1.9-3-3.7-4.7-5.6c-1.7-1.9-3.5-3.8-5.3-5.7c-1.9-2-3.9-4-6-5.9c-2.5,1.2-4.8,2.6-7.1,4c7.4,4,14.3,8.3,20.6,13.2l-2.4,3
			c-0.7-0.5-1.4-1-2-1.6l-0.6,3.7l0,0h0c-1.3-0.2-2.6-0.4-4-0.6l-0.1,3.3l-0.1,0c-1.1,0-2.2-0.1-3.3-0.1l0.3,1.8l0,0
			c-6.8,1-13.6,2.2-20.5,3.8c-5.1,1.2-10.2,2.5-15.2,4c-0.9,2.3-1.6,4.5-2.1,6.8c4.6-1.7,9.2-3.2,14-4.6c8.2-2.4,16.5-4.3,25.2-5.8
			l0,0l0.6,3.8l0,0c-8.5,1.4-16.7,3.3-24.7,5.7c-5.4,1.6-10.6,3.4-15.8,5.3c-0.2,1.5-0.2,2.9-0.2,4.4c2.6-1.2,5.1-2.4,7.7-3.5
			c8.8-3.7,17.8-6.9,27-9.4l0,0l1,3.7l0,0c-9,2.5-17.9,5.6-26.5,9.3c-3,1.3-6,2.6-9,4.1c0.1,0.6,0.2,1.3,0.3,1.9l0,0
			c0.1,0.7,0.3,1.3,0.4,2c0.1,0.6,0.3,1.2,0.5,1.8c0.5-0.3,1-0.6,1.5-0.8c10.9-6.1,22.6-11.3,35.1-15.7l0.1,0l1.3,3.6l-0.1,0
			l0.2,0.4l1.5-1.2l0.4,0.5l0.2-0.2l0,0l0,0l2.8,2.6l0,0h0c-9.6,10.5-18.3,21.3-26.2,32.2c1.9,1.2,4,2.3,6.1,3.3
			c6.3-12.1,13.2-23.8,20.6-35.2l0,0l0,0l3.2,2.1l1-2.6l3.6,1.4c-5,13.3-9.6,26.3-13.7,39.1c2.5,0.5,5.2,0.8,7.8,1.1
			c1.9-13,4.1-26.4,6.5-40.2h0l0-0.1l3.8,0.7l0,0.1v0c-2.4,13.6-4.5,26.8-6.4,39.7c2.5,0.1,5.1,0.1,7.7-0.1
			c0.2-13.6,0.6-27.3,1.1-41l3.9,0.1l0,0.2l3.5-0.6l0,0h0c2.5,13.1,4.9,26.1,7.2,38.9l0.3-0.1c3.2-0.8,6.3-1.7,9.3-2.7
			c-5.5-12.8-11.2-25.3-17-37.6l0,0l3.5-1.7l0,0l0,0c0.5,1.2,1.1,2.3,1.6,3.5l1.2-0.9l-1.1-1l-0.3-0.2l2.5-3l0.3,0.2
			c10.4,8.7,20.9,18.5,31.2,29.2c1.8-1.3,3.5-2.6,5.2-4c-10.5-8.5-21.5-16.8-32.9-25.1l2.3-3.1c11.7,8.4,22.9,16.9,33.6,25.6
			c1.9-1.8,3.7-3.7,5.4-5.6c-11.9-6.9-24.1-13.1-36.3-18.3l-0.2-0.1l1.2-2.8l0.9-3.4l0.1,0c14.7,3.9,28.6,8.5,41.8,13.6
			c0.7-1.4,1.4-2.9,2-4.3c0.2-0.6,0.5-1.2,0.7-1.8c-12.6-2.8-26-5-40-6.4l0.4-3.8c14.3,1.4,27.9,3.6,40.8,6.5c0.5-1.7,0.8-3.5,1-5.2
			c-13.5-1.6-27.4-2.2-41.9-1.8l-0.1-3.9l0.2,0l-0.4-3.5l0.4,0l-0.7-2.5c12.7-3.8,26.2-6.1,40-7.1c-0.7-1.6-1.5-3.2-2.5-4.7
			c-12.9,2.4-25.4,6.1-37.1,11.1l-1.5-3.6c11.4-4.9,23.6-8.6,36.1-11c-1.2-1.5-2.5-2.9-4-4.3c-11.8,3.8-23.1,9.1-33.8,16.1l-1.7-2.7
			c-1.4,1.1-2.8,2.2-4.2,3.4L239.6,62.2L239.6,62.2z M257.4,31.8c6.3-5.7,13.1-11,20.3-15.9c-3.7-1-7.5-1.9-11.5-2.5
			c-5.9,5.3-11.5,11.1-16.4,17.1C252.4,30.8,255,31.3,257.4,31.8L257.4,31.8z M281.9,13.2c1.8-1.2,3.6-2.3,5.4-3.4
			c-4.6-1-9.3-1.7-14.1-2.2c-1.1,0.9-2.1,1.7-3.2,2.6C274.1,11,278.1,12,281.9,13.2L281.9,13.2z M229.4,55.7
			c0.8-1.8,1.7-3.6,2.6-5.5c1.5-2.9,3.1-5.8,5-8.7c1.7-2.6,3.4-5.2,5.4-7.8c-2.6-0.1-5.2,0-7.9,0.1c-0.8,2.3-1.6,4.7-2.3,7.1
			c-0.8,2.7-1.4,5.5-1.9,8.3C229.9,51.5,229.6,53.6,229.4,55.7L229.4,55.7z M245.2,30.1c4.8-6,10.2-11.9,16.1-17.4
			c-5.1-0.6-10.3-0.9-15.6-0.8c-3.7,5.6-7,11.6-9.6,18.1C239.1,29.9,242.2,29.9,245.2,30.1L245.2,30.1z M265,9.3
			c0.9-0.8,1.8-1.5,2.7-2.3c-6-0.4-12.1-0.5-18.4-0.3c-0.3,0.4-0.6,0.9-1,1.3C254.1,8.1,259.6,8.5,265,9.3L265,9.3z M225.5,55.9
			c0.2-2.4,0.6-4.9,1-7.2c0.5-2.9,1.2-5.8,2-8.7c0.5-1.9,1.1-3.8,1.8-5.7c-1.9,0.2-3.9,0.5-5.9,0.9
			C224.5,41.8,224.9,48.6,225.5,55.9L225.5,55.9z M231.7,30.3c2.5-6.5,5.7-12.6,9.2-18.2c-5.4,0.3-10.9,0.9-16.5,1.9
			c-0.2,6-0.3,11.7-0.2,17.3C226.8,30.9,229.3,30.5,231.7,30.3L231.7,30.3z M243.6,8.1c0.2-0.4,0.5-0.7,0.7-1.1
			c-3.9,0.3-7.8,0.7-11.7,1.2c-2.6,0.4-5.3,0.8-7.9,1.3l0,0.4C231.1,8.9,237.4,8.3,243.6,8.1L243.6,8.1z M221.6,55.1
			c-0.5-6.6-0.9-12.9-1.1-19.1c-0.5,0.1-1,0.2-1.5,0.4c-1.8,0.4-3.7,0.9-5.4,1.5C216.4,43.1,219.1,48.7,221.6,55.1L221.6,55.1z
			 M220.4,32c-0.1-5.7-0.1-11.4,0.2-17.3c-1.7,0.4-3.4,0.7-5.1,1.2c-4.6,1.1-9,2.5-13.4,4c3.2,4.6,6.3,9.1,9.1,13.8l0.4,0.7
			c2.1-0.7,4.3-1.3,6.5-1.8C218.8,32.4,219.6,32.2,220.4,32L220.4,32z M220.7,10.7l0-0.4c-7.3,1.5-14.4,3.5-21.3,5.9l0.3,0.4
			c4.8-1.7,9.7-3.2,14.8-4.5C216.6,11.6,218.7,11.2,220.7,10.7L220.7,10.7z M207.8,35.6c-2.9-4.9-6.1-9.6-9.5-14.4
			c-4.2,1.6-8.3,3.4-12.2,5.4c4.4,3.7,9.1,7.9,13.8,12.2C202.5,37.7,205.1,36.6,207.8,35.6L207.8,35.6z M196,18l-0.3-0.4
			c-4.7,1.7-9.2,3.6-13.6,5.7l0.9,0.7C187.1,21.8,191.5,19.8,196,18L196,18z M196.2,40.7c-4.7-4.4-9.5-8.5-13.8-12.1
			c-4.7,2.5-9.2,5.3-13.4,8.3c5.7,2.3,11.3,4.7,16.6,7.3c0.9,0.4,1.7,0.8,2.6,1.3C190.7,43.7,193.4,42.2,196.2,40.7L196.2,40.7z
			 M179.2,25.9l-1-0.8c-5.6,2.8-11,5.9-16.1,9.1c0.9,0.3,1.8,0.7,2.6,1C169.2,31.9,174.1,28.8,179.2,25.9L179.2,25.9z M201.3,57.4
			c-4.1-2.6-8.4-5.1-12.9-7.5c-1.4,1-2.8,2-4.2,3.1c1.2,0.2,2.3,0.4,3.4,0.7c3.9,0.8,7.7,1.8,11.2,2.9
			C199.7,56.8,200.5,57.1,201.3,57.4L201.3,57.4z M184.5,47.9l-0.6-0.3c-5.9-2.9-12.2-5.6-18.6-8c-4.1,3.1-7.9,6.4-11.4,9.9
			c8.2,0.5,17,1.3,25.4,2.7C180.9,50.7,182.7,49.3,184.5,47.9L184.5,47.9z M161.1,38c-1-0.4-2-0.7-3-1.1
			c-5.5,3.8-10.7,7.8-15.4,12.1c2,0.1,4,0.1,6.1,0.2C152.5,45.3,156.6,41.5,161.1,38L161.1,38z M199.4,60.8
			c-0.6-0.2-1.1-0.4-1.7-0.5c-3.4-1.1-7-2-10.8-2.8c-2.1-0.4-4.3-0.8-6.5-1.2c-1.2,1.1-2.3,2.2-3.4,3.3l0.8,0
			c5.2,0,10.3,0.2,15.3,0.6C195.1,60.3,197.3,60.5,199.4,60.8L199.4,60.8z M175.6,55.5c-8.5-1.2-17.2-1.9-25.3-2.4
			c-2.9,3.2-5.6,6.4-8,9.8c9.6-1.8,19.5-2.9,29.3-3.2C172.9,58.3,174.2,56.9,175.6,55.5L175.6,55.5z M145.3,52.9
			c-2.3-0.1-4.6-0.1-6.8-0.2c-4.6,4.4-8.7,9-12.4,13.8c3.6-0.9,7.1-1.8,10.8-2.6C139.4,60.2,142.2,56.5,145.3,52.9L145.3,52.9z
			 M133.2,52.7l-2,0c-6.3,5.5-12.1,11.3-17.2,17.5c2-0.7,4.1-1.3,6.1-1.9C123.9,62.9,128.3,57.7,133.2,52.7L133.2,52.7z M198.3,64.6
			c-1.8-0.2-3.7-0.4-5.5-0.5c-5-0.4-10-0.6-15-0.6c-1.4,0-2.8,0-4.3,0.1c-0.9,1.1-1.7,2.1-2.5,3.2c5.2-0.8,10.4-1.4,15.5-1.8
			C190.4,64.7,194.4,64.5,198.3,64.6L198.3,64.6z M168.4,63.7c-9.8,0.5-19.6,1.8-29.2,3.8c-1.7,2.7-3.3,5.5-4.6,8.3
			c10.2-3.4,20.6-6.2,31.1-8.1C166.5,66.3,167.4,65,168.4,63.7L168.4,63.7z M134.1,68.6c-3.9,0.9-7.8,1.9-11.7,3
			c-2.6,3.7-4.9,7.5-6.9,11.3c4.6-1.9,9.3-3.7,14.1-5.4C130.9,74.5,132.4,71.5,134.1,68.6L134.1,68.6z M116.6,73.4
			c-2.4,0.8-4.8,1.6-7.2,2.4c-3.5,4.6-6.7,9.4-9.6,14.2c3.3-1.6,6.7-3.2,10.1-4.7C111.9,81.2,114.1,77.3,116.6,73.4L116.6,73.4z
			 M185.8,68.9c-5.3,0.4-10.7,1.1-16.1,2c-0.5,0.1-1,0.2-1.6,0.3c-0.5,0.8-0.9,1.6-1.3,2.4c4.1-1.2,8.1-2.2,12.2-3.2
			C181.3,69.8,183.5,69.3,185.8,68.9L185.8,68.9z M163.2,72.1c-10.3,2.1-20.6,5-30.7,8.5l-0.3,0.6c-0.8,1.9-1.4,3.9-2,5.8
			c9.1-4.2,18.4-7.8,27.9-10.9c1.2-0.4,2.5-0.8,3.7-1.2C162.2,74,162.7,73.1,163.2,72.1L163.2,72.1z M127.7,82.3
			c-5,1.9-10,3.9-14.8,6c-0.2,0.5-0.5,1-0.7,1.5c-1.2,2.8-2.3,5.6-3.2,8.4c5.4-3.2,10.9-6.2,16.6-8.9
			C126.2,86.9,126.9,84.6,127.7,82.3L127.7,82.3z M107.6,90.6c-3.8,1.7-7.5,3.5-11.1,5.4c-1.1,2.2-2.2,4.4-3.1,6.6
			c-1.2,2.7-2.2,5.4-3.2,8.1c4.4-3.3,9-6.5,13.8-9.5C105,97.6,106.2,94.1,107.6,90.6L107.6,90.6z M160,79.6l-0.7,0.2
			c-10.3,3.3-20.5,7.4-30.3,12c-0.5,2.2-0.9,4.4-1.1,6.6c-0.1,1.1-0.2,2.2-0.3,3.2c8.1-4.8,16.5-9.1,25.2-12.8
			c1.8-0.8,3.7-1.5,5.5-2.3C158.6,84.3,159.2,81.9,160,79.6L160,79.6z M124.5,94c-5.9,3-11.6,6.2-17.2,9.6c-0.7,2.6-1.2,5.3-1.6,8
			c-0.3,1.7-0.5,3.5-0.6,5.2c6-4.5,12.1-8.7,18.4-12.7c0.1-2,0.2-4.1,0.4-6.1C124.1,96.7,124.3,95.4,124.5,94L124.5,94z
			 M102.7,106.6c-5,3.3-9.9,6.8-14.5,10.5c-1.1,3.8-1.9,7.6-2.5,11.5c-0.3,1.7-0.5,3.4-0.6,5.1c5.2-4.8,10.5-9.4,15.9-13.7
			c0.1-3,0.4-6,0.9-9C102.1,109.5,102.4,108.1,102.7,106.6L102.7,106.6z M83.2,121.3c-4.3,3.8-8.4,7.7-12.3,11.8
			c-1.5,5.7-2.5,11.7-2.9,17.8c4.2-4.6,8.5-9.1,12.9-13.4c0.2-3.2,0.5-6.4,1-9.6C82.3,125.8,82.7,123.5,83.2,121.3L83.2,121.3z
			 M67.7,157.1c-0.1,5.8,0.3,11.8,1.3,17.7c4-6.2,8.3-12.1,12.9-17.9c-0.1-0.4-0.1-0.8-0.2-1.3l0,0c-0.6-4.1-0.9-8.3-0.9-12.4
			C76.3,147.6,72,152.3,67.7,157.1L67.7,157.1z M157.8,91c-1.2,0.5-2.3,1-3.5,1.5c-9.3,4-18.3,8.6-26.9,13.9c0,2.4,0.2,4.8,0.5,7.2
			c5.1-3.6,10.4-7,15.7-10.2c4.6-2.7,9.4-5.3,14.2-7.7C157.7,94.1,157.7,92.5,157.8,91L157.8,91z M123.5,108.7
			c-6.4,4.1-12.7,8.5-18.7,13.2c-0.1,3.3,0.1,6.6,0.4,9.9c6.1-5.6,12.5-10.9,19.1-15.8C123.9,113.6,123.7,111.1,123.5,108.7
			L123.5,108.7z M100.9,125c-5.6,4.5-11,9.3-16.3,14.4c-0.2,4.5,0,9,0.5,13.5c5.2-6.2,10.8-12.2,16.6-17.8l-0.1-0.6l0,0
			C101.2,131.3,101,128.1,100.9,125L100.9,125z M352.4,28.9c-4.7-0.1-9.4-0.1-14.1,0.1c2.9,2.4,5.6,4.9,8.2,7.6
			c5.7,0.3,11.5,0.8,17.3,1.5C360.2,34.8,356.4,31.8,352.4,28.9L352.4,28.9z M332.4,29.4c-6.1,0.4-12.2,1.1-18.3,2.2
			c1.8,1.7,3.6,3.5,5.2,5.4c7.1-0.6,14.2-0.7,21.5-0.5C338.2,33.9,335.4,31.6,332.4,29.4L332.4,29.4z M309.4,32.4
			c-2.4,0.5-4.7,1-7.1,1.6c-7.6,1.9-15.1,4.4-22.5,7.6c1,0.7,1.9,1.5,2.9,2.2c10.3-3.2,21-5.3,31.9-6.4
			C312.9,35.7,311.2,34,309.4,32.4L309.4,32.4z M275.6,43.4c-7.8,3.6-15.5,8.1-23.2,13.5c8.3-4.8,16.9-8.6,25.7-11.6
			C277.4,44.6,276.5,44,275.6,43.4L275.6,43.4z M58.1,202.3c0.1,0.6,0.2,1.1,0.3,1.7c1.6,8.4,4.2,16.6,7.6,24.5
			c2.3-7.8,4.9-15.5,8-23c-3-6.6-5.3-13.4-6.9-20.3C63.9,190.7,60.9,196.4,58.1,202.3L58.1,202.3z M70,180.4
			c0.2,1.2,0.5,2.4,0.8,3.5c1.3,5.6,3.1,11.1,5.3,16.6c3.4-7.8,7.3-15.4,11.6-22.8c-2.1-5-3.8-10.3-4.9-15.8
			C78.2,167.9,73.9,174,70,180.4L70,180.4z M158.2,99.8c-4.3,2.2-8.5,4.5-12.6,6.9c-5.8,3.4-11.5,7.1-17,11.1
			c0.1,0.6,0.3,1.2,0.4,1.8c0.5,2.2,1.2,4.4,2,6.5c1-0.9,2.1-1.8,3.1-2.6c7.9-6.5,16.4-12.4,25.5-17.8c-0.3-0.9-0.6-1.9-0.8-2.9
			c-0.2-0.7-0.3-1.4-0.5-2.2l0,0C158.3,100.3,158.2,100,158.2,99.8L158.2,99.8z M125.2,120.2c-6.7,5-13.1,10.4-19.3,16.2
			c0.1,0.7,0.3,1.4,0.4,2.1c0.7,3.2,1.6,6.4,2.6,9.4c5.8-6.8,12.2-13.2,18.9-19.3c-1.1-2.6-2-5.4-2.7-8.2L125.2,120.2L125.2,120.2z
			 M102.6,139.7c-5.9,5.8-11.4,11.9-16.7,18.3c0.2,0.9,0.3,1.8,0.5,2.7c0.9,4.4,2.2,8.7,3.8,12.9c4.8-7.7,10.1-15.2,15.9-22.2
			C104.6,147.6,103.5,143.7,102.6,139.7L102.6,139.7z M374.4,43.5c3.2,3.7,6.1,7.6,8.6,11.6c6,1.4,11.9,3.1,17.6,5l0.2,0.1
			c-3.4-4.9-7.3-9.5-11.7-13.9C384.2,45.1,379.3,44.2,374.4,43.5L374.4,43.5z M368.3,42.6c-6.1-0.8-12.2-1.5-18.2-1.9
			c2.6,3.1,4.9,6.3,6.9,9.7c6.6,0.8,13.2,1.9,19.7,3.3l0.8,0.2C374.8,49.9,371.7,46.1,368.3,42.6L368.3,42.6z M344.7,40.4
			c-7.6-0.3-15.1-0.3-22.5,0.2c1.8,2.5,3.5,5.1,4.9,7.9c8.4,0,16.7,0.4,25,1.3C349.9,46.5,347.4,43.4,344.7,40.4L344.7,40.4z
			 M317.6,41l-0.9,0.1c-10.5,1-20.8,2.9-30.8,5.8c1.5,1.5,2.8,3.1,4,4.8c10.7-1.9,21.7-2.9,32.8-3.1C321.2,45.9,319.5,43.4,317.6,41
			L317.6,41z M385.7,59.8c2.6,4.7,4.8,9.7,6.5,14.9c2.9,1,5.7,2.1,8.6,3.2c4.1,1.6,8.1,3.3,12.1,5.1c-2.3-6.1-5.2-11.9-8.6-17.6
			c-1.6-0.6-3.2-1.1-4.8-1.6C394.9,62.3,390.4,60.9,385.7,59.8L385.7,59.8z M380.5,58.5c-1.5-0.4-3.1-0.7-4.6-1
			c-5.4-1.1-10.9-2.1-16.5-2.9c2,3.9,3.7,7.9,5.1,12.1c7.8,1.8,15.6,4,23.1,6.4C385.7,68,383.4,63.1,380.5,58.5L380.5,58.5z
			 M354.7,54c-8.5-1-17.2-1.5-25.8-1.6c1.2,2.9,2.2,5.8,3,8.9c9.4,1,18.9,2.4,28.2,4.4C358.6,61.6,356.8,57.7,354.7,54L354.7,54z
			 M324.7,52.4c-10.9,0.1-21.8,1-32.5,2.8c1,1.7,1.8,3.4,2.5,5.2c10.9-0.6,22-0.4,33.1,0.5C327,58,325.9,55.1,324.7,52.4L324.7,52.4
			z M393.7,79.3c0.5,1.7,0.9,3.5,1.3,5.2c0.4,1.9,0.7,3.9,1,5.9l0,0c0.2,1.1,0.3,2.2,0.4,3.2c7.8,4.2,15.3,8.8,22.5,13.9
			c-0.5-4.1-1.2-8.2-2.2-12.3c-0.6-2.4-1.3-4.9-2-7.3c-4.9-2.3-10-4.5-15.3-6.6C397.5,80.7,395.6,80,393.7,79.3L393.7,79.3z
			 M419.4,90.3c0.4,1.4,0.7,2.7,1.1,4.1c1.3,5.3,2.1,10.7,2.6,16.2c1.8,1.3,3.6,2.7,5.4,4.1c4.1,3.2,8,6.6,11.9,10.2
			c-0.3-2.3-0.7-4.6-1.1-7c-1.3-6.7-3.1-13.3-5.6-19.8c-2.7-1.6-5.5-3.2-8.3-4.8C423.4,92.4,421.4,91.3,419.4,90.3L419.4,90.3z
			 M389.2,77.7c-7.6-2.6-15.5-4.9-23.5-6.8c0.3,1.1,0.6,2.3,0.8,3.4c0.3,1.6,0.6,3.3,0.9,5l0,0c0.1,0.6,0.1,1.1,0.2,1.7
			c8.5,3,16.7,6.5,24.6,10.5l-0.1-0.6l0,0c-0.3-1.9-0.6-3.8-1-5.6C390.6,82.7,389.9,80.2,389.2,77.7L389.2,77.7z M361.5,69.9
			c-9.4-2.1-19-3.7-28.7-4.7l0.1,0.4l0,0c0.4,2.1,0.6,4.2,0.8,6.4c10.3,1.9,20.3,4.4,29.9,7.6c-0.2-1.5-0.5-3-0.8-4.5
			C362.4,73.4,361.9,71.6,361.5,69.9L361.5,69.9z M328.8,64.9c-11-1-22-1.2-32.8-0.7c0.1,0.4,0.2,0.8,0.3,1.2
			c0.2,0.7,0.3,1.4,0.5,2.2l0,0l0.1,0.6c11.3,0.4,22.3,1.4,32.9,3.2c-0.1-1.7-0.4-3.3-0.7-5l0,0C329,65.8,328.9,65.3,328.8,64.9
			L328.8,64.9z M292,64.4c-11.2,0.8-22.2,2.4-32.7,5c11.5-1.1,22.7-1.6,33.6-1.4c-0.1-0.6-0.2-1.2-0.4-1.8
			C292.3,65.6,292.2,65,292,64.4L292,64.4z M396.7,98.2c0.3,5,0.1,10-0.4,15c7.9,5.5,15.5,11.5,22.8,18.1c0.6-6.3,0.7-12.5,0.2-18.7
			C412.1,107.4,404.6,102.5,396.7,98.2L396.7,98.2z M423.4,115.7c0.3,6.3,0,12.6-0.7,18.9c4.8,4.5,9.4,9.3,13.8,14.3
			c1.4,1.6,2.8,3.2,4.1,4.8c0.8-7.6,1-15.3,0.3-22.9c-4.8-4.6-9.8-8.9-14.9-13C425.2,117.1,424.3,116.4,423.4,115.7L423.4,115.7z
			 M445.1,134.8c0.3,7.7,0,15.3-1.1,22.9c5.1,6.3,10,13,14.7,20.1c1.1-8.9,1.3-18,0.6-27.4c-2.6-3.1-5.2-6.1-7.9-9
			C449.3,139.2,447.2,137,445.1,134.8L445.1,134.8z M463.5,155.6c0.4,9.3-0.2,18.4-1.6,27.3c2.3,3.6,4.5,7.3,6.7,11.1
			c1.2-9.6,1.7-19.6,1.3-29.9C467.8,161.1,465.7,158.3,463.5,155.6L463.5,155.6z M392.7,96.1c-7.9-4.1-16.2-7.8-24.7-10.8
			c0.2,3.8,0.2,7.7-0.1,11.5c8.6,4.1,16.8,8.8,24.8,14.1C393.1,105.9,393.1,101,392.7,96.1L392.7,96.1z M364,83.8
			c-9.7-3.3-19.8-5.9-30.2-7.9c0,2.5-0.1,5.1-0.4,7.6c10.6,3.1,20.9,6.9,30.7,11.4C364.4,91.3,364.3,87.6,364,83.8L364,83.8z
			 M329.9,75.3c-10.5-1.8-21.4-2.9-32.7-3.2c0.1,1.4,0.1,2.7,0.1,4.1c11.1,1.5,21.9,3.6,32.3,6.4C329.9,80.1,330,77.7,329.9,75.3
			L329.9,75.3z M293.4,71.9c-12.3-0.2-25.1,0.4-38.3,1.8c13.2-0.2,26,0.4,38.4,1.9C293.5,74.4,293.5,73.2,293.4,71.9L293.4,71.9z
			 M395.8,117.6l-0.1,0.4c-0.7,4.6-1.7,9.1-3.1,13.6c8,6.3,15.5,13,22.7,20.3c1.4-5.3,2.5-10.6,3.2-15.8
			C411.3,129.4,403.7,123.2,395.8,117.6L395.8,117.6z M422,139.4c-0.7,4.6-1.7,9.3-3,13.9c-0.2,0.6-0.3,1.2-0.5,1.9
			c6.2,6.4,12.1,13.3,17.8,20.5c1.6-5.5,2.8-11.1,3.6-16.7c-2.1-2.5-4.2-5-6.3-7.4C429.8,147.3,426,143.2,422,139.4L422,139.4z
			 M443.2,162.9c-1,5.5-2.3,11-4,16.4c5.1,6.7,10.1,13.7,14.8,21c1.6-5.5,2.9-11,3.9-16.7C453.2,176.4,448.3,169.5,443.2,162.9
			L443.2,162.9z M460.9,188.5c-1.1,5.5-2.5,10.9-4.2,16.1c2.5,4,4.9,8,7.3,12.1c1.5-5.4,2.7-11,3.6-16.6
			C465.5,196.2,463.2,192.3,460.9,188.5L460.9,188.5z M392.2,115.2c-7.9-5.3-16.2-10.1-24.8-14.3c-0.1,0.6-0.2,1.2-0.3,1.8
			c-0.5,3.4-1.3,6.8-2.2,10.2c8.5,4.9,16.6,10.4,24.4,16.3c1.1-3.9,1.9-7.8,2.5-11.7C392,116.7,392.1,115.9,392.2,115.2L392.2,115.2
			z M363.8,99.1c-9.9-4.6-20.2-8.5-30.9-11.6c-0.5,3-1.2,6-2.1,8.9c10.8,4.2,21,9,30.8,14.4c0.8-2.9,1.4-5.8,1.9-8.8
			C363.5,101.1,363.7,100.1,363.8,99.1L363.8,99.1z M329.1,86.4c-10.3-2.8-21-5-32.1-6.5c-0.2,1.9-0.6,3.8-1.1,5.6
			c10.9,2.6,21.3,5.8,31.2,9.5C328,92.2,328.7,89.3,329.1,86.4L329.1,86.4z M68.6,233.8c2.7,5.5,5.9,10.8,9.5,15.9
			c1.7-8.6,3.9-17,6.6-25.3c-3.1-4.6-5.9-9.3-8.3-14.2C73.3,217.9,70.7,225.8,68.6,233.8L68.6,233.8z M78.2,205.4
			c2.3,4.9,4.9,9.7,7.9,14.4c3-8.7,6.5-17.2,10.7-25.5c-2.7-3.9-5.1-8-7.1-12.2C85.4,189.6,81.6,197.4,78.2,205.4L78.2,205.4z
			 M61.3,275.2c3.4,7.9,7.5,15.2,12.1,22c0-6.2,0.2-12.3,0.7-18.5c-4-5.5-7.7-11.3-11.2-17.4C62.3,266,61.7,270.6,61.3,275.2
			L61.3,275.2z M63.9,255c3.2,6.3,6.8,12.2,10.7,17.8c0.6-6,1.4-12,2.4-17.9c-3.7-5-7-10.1-9.9-15.5C65.9,244.6,64.8,249.8,63.9,255
			L63.9,255z M185.8,96.6c-6.8,2.9-13.2,6.1-19.5,9.6c-0.7,0.4-1.3,0.8-2,1.1c0.5,1.2,1.1,2.4,1.7,3.5
			C172.3,106,178.9,101.2,185.8,96.6L185.8,96.6z M161,109.3c-8.7,5.2-16.8,10.9-24.4,17.1c-1.3,1.1-2.7,2.2-4,3.4
			c1.2,2.6,2.6,5.1,4.2,7.6c7.7-8.2,16.2-16,25.4-23.5l0.7-0.6C162.2,112,161.6,110.7,161,109.3L161,109.3z M129.6,132.4
			c-6.8,6.1-13.2,12.7-19,19.6c1.5,3.6,3.4,7,5.5,10.3c4.9-6.8,10.2-13.4,15.9-19.8c0.7-0.8,1.4-1.6,2.2-2.4
			C132.4,137.7,130.9,135.1,129.6,132.4L129.6,132.4z M107.8,155.4c-5.8,7.2-11,14.7-15.8,22.6c1.9,4.3,4.2,8.4,6.8,12.3
			c4.4-8.4,9.3-16.6,14.8-24.5C111.4,162.5,109.5,159,107.8,155.4L107.8,155.4z M81.2,253.9c4.3,5.6,9.1,10.8,14.4,15.8
			c0.8-9.3,2.1-18.5,3.9-27.6c-3.3-3.2-6.3-6.6-9.1-10c-1-1.2-2-2.5-2.9-3.8C84.8,236.7,82.8,245.3,81.2,253.9L81.2,253.9z
			 M88.9,223.8c1.4,2,2.9,4,4.5,5.9c2.2,2.7,4.5,5.4,7,7.9c1.4-6.4,3.1-12.7,5.1-19c1.1-3.4,2.2-6.7,3.4-10c-3.5-3.4-6.7-7-9.6-10.8
			C95.3,206.3,91.8,214.9,88.9,223.8L88.9,223.8z M78.3,320.7c6.1,8.7,13.1,16.6,20.9,23.6c-0.8-5-1.5-9.9-2.1-14.9
			c-7.1-6-13.6-12.7-19.5-20C77.7,313.2,77.9,316.9,78.3,320.7L78.3,320.7z M77.3,302.8c5.7,7.6,12.1,14.6,19.1,20.9
			c-0.8-7.3-1.3-14.6-1.5-21.9c-6.1-5.6-11.9-11.7-17.2-18.3C77.3,289.9,77.2,296.3,77.3,302.8L77.3,302.8z M78.1,277.6
			c5.1,6.8,10.7,13,16.6,18.7c-0.1-7.3,0-14.5,0.5-21.7l-0.2-0.1c-5.4-4.8-10.3-10-14.7-15.5C79.3,265.2,78.6,271.4,78.1,277.6
			L78.1,277.6z M198.8,93c-11,6.7-21.2,13.7-30.6,21.1c0.8,1.1,1.6,2.1,2.5,3.1C179.1,109,188.5,100.9,198.8,93L198.8,93z
			 M165.1,116.5l-0.4,0.3c-9.3,7.6-17.8,15.5-25.6,23.7c1.5,2,3.2,3.9,5.1,5.8c7-9,14.9-17.8,23.6-26.4
			C166.9,118.8,166,117.7,165.1,116.5L165.1,116.5z M136.5,143.4c-0.5,0.6-1.1,1.2-1.6,1.8c-6,6.7-11.5,13.6-16.5,20.7
			c2.1,2.9,4.4,5.7,6.9,8.4c4.9-8.4,10.4-16.7,16.6-24.8C139.9,147.5,138.1,145.5,136.5,143.4L136.5,143.4z M116,169.2
			c-5.5,8-10.4,16.3-14.7,24.8c2.8,3.8,5.8,7.4,9.2,10.7c3.6-9.1,7.8-18.1,12.8-27C120.6,175,118.2,172.2,116,169.2L116,169.2z
			 M99.2,273c5.4,4.7,11.3,9.1,17.6,13.1c0.5-9.3,1.4-18.6,2.8-27.8c-6.1-4-11.8-8.3-16.9-13C101,254.5,99.9,263.7,99.2,273
			L99.2,273z M103.7,240.9c5,4.8,10.5,9.2,16.6,13.3c1.7-10.4,4.1-20.7,7-31c-5.5-3.5-10.6-7.4-15.3-11.6c-1,2.8-1.9,5.5-2.8,8.3
			C107,226.8,105.2,233.8,103.7,240.9L103.7,240.9z M103.8,348.3c6.2,5.2,12.9,9.9,19.9,14.2c-1.3-5.5-2.4-11.1-3.3-16.7
			c-6.6-3.9-13-8.1-19-12.8C102.1,338.1,102.9,343.2,103.8,348.3L103.8,348.3z M100.7,327.4c5.9,4.9,12.2,9.4,18.9,13.4
			c-1.1-7.3-1.9-14.7-2.4-22.1c-6.4-4-12.5-8.5-18.3-13.4C99.2,312.6,99.8,320,100.7,327.4L100.7,327.4z M98.6,300
			c5.7,5.1,11.8,9.7,18.2,13.9c-0.4-7.7-0.5-15.5-0.2-23.3c-6.4-3.9-12.3-8.2-17.8-12.7C98.5,285.2,98.4,292.6,98.6,300L98.6,300z
			 M191.7,103.5c-6.5,5.4-12.7,10.9-18.4,16.4c1.1,1,2.2,2,3.4,2.9C181.5,116.3,186.5,109.9,191.7,103.5L191.7,103.5z M170.5,122.7
			c-8.7,8.6-16.6,17.4-23.5,26.3c2.7,2.4,5.6,4.6,8.7,6.6c4.9-8.6,10.2-17.1,16-25.6c0.9-1.4,1.9-2.7,2.8-4.1
			C173.1,124.9,171.8,123.8,170.5,122.7L170.5,122.7z M144.6,152.1c-6.2,8.2-11.7,16.5-16.6,25c3.7,3.5,7.7,6.8,12.1,9.8
			c2.2-5.1,4.6-10.3,7.1-15.4c2.1-4.2,4.2-8.3,6.5-12.5C150.5,156.9,147.4,154.6,144.6,152.1L144.6,152.1z M126.1,180.5
			c-4.9,8.9-9.1,17.9-12.6,27.1c4.5,4.2,9.5,8.1,14.9,11.6c2.9-9.6,6.3-19.2,10.2-28.8C134.1,187.4,129.9,184.1,126.1,180.5
			L126.1,180.5z M391.4,135.6c-1.1,3.2-2.3,6.3-3.6,9.4c-1.2,2.7-2.5,5.5-3.9,8.2c8,7.5,15.4,15.4,22.2,23.6
			c3.3-6.7,6.1-13.6,8.2-20.5C406.9,148.8,399.3,141.9,391.4,135.6L391.4,135.6z M417.2,159.4c-2.3,7-5.1,13.9-8.6,20.7
			c6,7.5,11.4,15.4,16.4,23.5c0.8-1.5,1.5-2.9,2.2-4.4c3-6.2,5.6-12.6,7.7-19C429.2,172.8,423.3,165.9,417.2,159.4L417.2,159.4z
			 M437.7,183.8c-2,5.7-4.3,11.4-7,17c-1.1,2.2-2.2,4.4-3.4,6.6c4.7,8.1,9,16.4,12.8,25.1c5-8.7,9.2-17.9,12.4-27.4
			C447.8,197.7,442.8,190.6,437.7,183.8L437.7,183.8z M455.1,209.4c-3.4,9.6-7.9,18.8-13.2,27.6c2.4,5.9,4.7,11.9,6.7,17.9
			c5.7-10.3,10.4-21.3,14-32.9C460.2,217.6,457.7,213.4,455.1,209.4L455.1,209.4z M465.2,226.6c-3.9,11.8-8.9,22.9-15,33.3
			c2.1,6.7,3.8,13.6,5.4,20.5c7.4-10.6,14.1-21.9,19.9-34.1C472.2,239.6,468.7,233,465.2,226.6L465.2,226.6z M388.1,133
			c-7.7-5.9-15.8-11.4-24.3-16.4c-1,3-2.1,5.9-3.4,8.9c-0.9,2-1.9,4.1-2.9,6.1c8.3,5.9,16,12.2,23.3,18.8c1.2-2.3,2.3-4.6,3.3-7
			C385.7,140,387,136.5,388.1,133L388.1,133z M360.4,114.7c-9.8-5.5-20-10.4-30.9-14.6c-0.3,0.8-0.6,1.6-0.9,2.3
			c-1.2,2.9-2.5,5.9-4.1,8.7c6.5,3.5,12.7,7.1,18.7,10.9c3.8,2.4,7.4,4.8,11,7.3c0.9-1.8,1.8-3.6,2.6-5.4
			C358.2,120.9,359.4,117.8,360.4,114.7L360.4,114.7z M325.9,98.7c-9.9-3.7-20.3-6.8-31.1-9.4c-0.3,0.8-0.6,1.6-0.9,2.3
			c-0.6,1.5-1.3,2.9-2,4.3c2.2,0.9,4.4,1.8,6.6,2.7c7.8,3.3,15.4,6.9,22.7,10.7c1.5-2.7,2.8-5.5,3.9-8.4
			C325.4,100.3,325.6,99.5,325.9,98.7L325.9,98.7z M120.6,288.5c6.3,3.7,13,7.1,20.2,10.1c-0.1-9.5,0.3-19,1.2-28.6
			c-1.5-0.6-2.9-1.2-4.4-1.9c-5-2.3-9.8-4.8-14.3-7.5C121.9,269.9,121,279.2,120.6,288.5L120.6,288.5z M123.9,256.4
			c4.8,3,9.9,5.7,15.3,8.2c1.1,0.5,2.1,0.9,3.2,1.4c1.1-10.8,2.8-21.6,5.1-32.4c-3.4-1.4-6.7-2.9-9.8-4.6c-2.3-1.2-4.6-2.5-6.8-3.8
			C127.8,235.6,125.5,246,123.9,256.4L123.9,256.4z M133.2,382.7c8.9,5,18.3,9.3,28.3,12.8c-2-4.5-3.9-9-5.6-13.6
			c-4.8-1.7-9.4-3.6-14-5.6c-4.2-1.9-8.3-3.9-12.2-6C130.7,374.4,131.9,378.6,133.2,382.7L133.2,382.7z M128.3,365.2
			c4.9,2.7,9.9,5.3,15.1,7.6c3.5,1.6,7.1,3,10.7,4.4c-2.1-6-3.9-12-5.5-18.1c-8.3-3.1-16.3-6.7-23.9-10.8
			C125.7,353.9,126.9,359.6,128.3,365.2L128.3,365.2z M123.9,343.3c7.5,4.2,15.4,8,23.6,11.1c-1.8-7.4-3.2-14.9-4.2-22.4
			c-7.6-3.1-15-6.7-22-10.9C121.8,328.6,122.7,336,123.9,343.3L123.9,343.3z M120.9,316.4c7,4.3,14.3,8,21.8,11.2
			c-1-8.2-1.6-16.5-1.8-24.9c-7.2-2.9-14-6.2-20.4-9.9C120.2,300.7,120.4,308.6,120.9,316.4L120.9,316.4z M177.7,128.2
			c-1,1.4-1.9,2.7-2.8,4.1c-5.8,8.4-11,16.8-15.9,25.4c2,1.2,4.1,2.3,6.3,3.3c1.4,0.7,2.9,1.3,4.4,1.9c3.9-9.3,8.2-18.5,12.7-27.5
			c0.6-1.2,1.2-2.4,1.8-3.6C181.9,130.7,179.7,129.5,177.7,128.2L177.7,128.2z M157.1,161c-2.2,4-4.3,8.1-6.3,12.1
			c-2.6,5.2-5,10.5-7.3,15.8c2.3,1.5,4.8,2.8,7.3,4.1c2.1,1.1,4.3,2.1,6.5,3.1c1.8-5.5,3.7-10.9,5.7-16.4c1.7-4.5,3.4-8.9,5.2-13.4
			c-1.6-0.6-3.1-1.3-4.6-2C161.4,163.4,159.2,162.2,157.1,161L157.1,161z M142,192.6c-3.9,9.5-7.3,19.2-10.1,28.8
			c2.4,1.5,4.9,2.9,7.5,4.2c2.9,1.5,5.8,2.9,8.9,4.2c2.2-10,4.9-20,7.9-29.8c-2.4-1.1-4.8-2.2-7.1-3.4
			C146.6,195.3,144.2,194,142,192.6L142,192.6z M381.8,156.6c-3.3,5.8-7.2,11.5-11.5,17.1c7.5,8.4,14.6,17.3,21.1,26.5
			c4.8-6.4,8.9-12.9,12.5-19.6C397.2,172.2,389.9,164.2,381.8,156.6L381.8,156.6z M406.6,183.8c-3.7,6.7-7.9,13.3-12.8,19.7
			c5.5,7.9,10.7,16.1,15.4,24.5c5.1-6.6,9.7-13.5,13.6-20.5C417.9,199.3,412.5,191.4,406.6,183.8L406.6,183.8z M425.1,211.3
			c-4.1,7-8.7,13.8-13.8,20.3c4.4,8.1,8.4,16.4,11.9,24.9c5.3-6.4,10.2-13.1,14.5-20C433.9,227.9,429.8,219.5,425.1,211.3
			L425.1,211.3z M439.4,241c-4.4,6.8-9.3,13.4-14.6,19.6c2.5,6.4,4.8,12.9,6.9,19.5c5.2-6.6,10-13.5,14.3-20.7
			C444,253.1,441.9,247,439.4,241L439.4,241z M447.5,264.4c-4.4,7-9.2,13.8-14.5,20.2c1.8,6.1,3.3,12.3,4.6,18.6
			c5.2-5.9,10.2-12,14.9-18.5C451.1,277.8,449.5,271,447.5,264.4L447.5,264.4z M453.6,289.8c-4.8,6.3-9.8,12.3-15,18.1
			c1.1,5.8,2,11.8,2.6,17.7c4.9-5,9.6-10.3,14.1-15.8c0.4-0.5,0.8-1,1.2-1.4C455.6,302.1,454.7,295.9,453.6,289.8L453.6,289.8z
			 M378.9,153.9c-7.3-6.6-15-12.9-23.3-18.9c-2.7,4.8-5.9,9.5-9.4,14.1c7.5,6.9,14.6,14.1,21.5,21.6
			C372,165.3,375.7,159.7,378.9,153.9L378.9,153.9z M352.5,132.8c-3.7-2.6-7.4-5.1-11.2-7.5c-6-3.8-12.2-7.4-18.6-10.8
			c-2,3.3-4.2,6.5-6.6,9.7c3.2,2.4,6.4,4.8,9.6,7.3c6,4.8,12,9.8,17.7,15C346.8,142.1,349.9,137.5,352.5,132.8L352.5,132.8z
			 M319.3,112.7c-7.2-3.7-14.6-7.2-22.3-10.5c-2.3-1-4.6-1.9-7-2.9c-1,1.7-2.2,3.5-3.5,5.1l0.2,0.1c8.9,5.3,17.7,11.1,26.3,17.3
			C315.3,118.9,317.4,115.9,319.3,112.7L319.3,112.7z M286.4,97.9c-10.8-4.2-22-8-33.8-11.3c10.3,4.7,20.6,10,30.7,15.9
			C284.3,101,285.4,99.5,286.4,97.9L286.4,97.9z M144.7,300.1c7.7,3,15.9,5.5,24.5,7.6c-0.4-7.7-0.6-15.6-0.5-23.6
			c0-1.9,0.1-3.8,0.1-5.7c-8.2-1.8-15.9-4.1-23.1-6.9C144.9,281.1,144.5,290.6,144.7,300.1L144.7,300.1z M146.1,267.5
			c7.1,2.8,14.8,5.1,22.9,6.9c0.4-10.7,1.4-21.7,2.8-33c-7.2-1.7-14.1-3.8-20.7-6.4C148.8,245.8,147.1,256.7,146.1,267.5
			L146.1,267.5z M173.6,410.8c5.5,2.1,11.1,3.9,16.9,5.4h0c3.8,1,7.6,1.9,11.4,2.7c-2.1-3.4-4.1-6.9-6-10.4
			c-9.3-1.6-18.3-3.8-27.1-6.5C170.4,405,171.9,407.9,173.6,410.8L173.6,410.8z M166.5,397.2c8.7,2.9,17.8,5.2,27.1,7
			c-2.3-4.5-4.4-9-6.3-13.7c-9.2-1.8-18.1-4.1-26.7-7C162.4,388.1,164.4,392.7,166.5,397.2L166.5,397.2z M158.8,378.8
			c8.6,3,17.6,5.4,26.8,7.3c-2.4-6-4.5-12.1-6.3-18.4c-9-1.9-17.8-4.3-26.3-7.2C154.7,366.7,156.6,372.8,158.8,378.8L158.8,378.8z
			 M151.9,356.1c8.5,3,17.2,5.5,26.2,7.5c-2-7.2-3.6-14.5-5-22.1c-8.8-2-17.4-4.6-25.7-7.8C148.5,341.2,150,348.7,151.9,356.1
			L151.9,356.1z M146.8,329.3c8.3,3.3,16.8,6,25.6,8.1c-1.4-8.3-2.3-16.9-3-25.7c-8.7-2-16.9-4.5-24.7-7.4
			C145,312.7,145.7,321,146.8,329.3L146.8,329.3z M209.8,95.3c-7.2,11.2-14,22.8-20.2,34.6c2.3,0.9,4.8,1.7,7.3,2.3
			C200.8,120.1,205.1,107.8,209.8,95.3L209.8,95.3z M187.8,133.3c-0.6,1.3-1.3,2.5-1.9,3.8c-4.5,8.9-8.7,18-12.6,27.2
			c4.2,1.5,8.5,2.7,13.1,3.7c2.8-10.5,5.9-21.2,9.4-32C193,135.2,190.3,134.3,187.8,133.3L187.8,133.3z M171.8,167.8
			c-1.8,4.4-3.6,8.9-5.2,13.3c-2,5.5-3.9,11-5.7,16.5c5.5,2.2,11.2,4,17.2,5.4c2.1-10.3,4.5-20.7,7.3-31.4
			C180.7,170.7,176.1,169.4,171.8,167.8L171.8,167.8z M159.7,201.4c-3.1,9.9-5.7,19.8-7.9,29.8c6.5,2.5,13.3,4.7,20.4,6.3
			c1.3-10,3-20.2,5.1-30.7C171.2,205.4,165.3,203.6,159.7,201.4L159.7,201.4z M367.9,176.7c-3.9,4.7-8.2,9.3-12.7,13.7
			c5.8,7.4,11.3,15,16.4,22.7c1.2,1.9,2.4,3.7,3.6,5.6c3.7-3.7,7.2-7.4,10.4-11.3c1.2-1.4,2.3-2.8,3.4-4.1
			C382.5,194.1,375.4,185.2,367.9,176.7L367.9,176.7z M391.4,206.7c-0.9,1.1-1.8,2.2-2.7,3.3c-3.5,4.2-7.3,8.2-11.3,12.1
			c5.2,8.4,10,16.9,14.3,25.6c5.4-5.3,10.4-10.8,15-16.5C402,222.8,396.8,214.6,391.4,206.7L391.4,206.7z M408.6,235
			c-4.7,5.7-9.8,11.2-15.2,16.5c3.9,8.2,7.5,16.6,10.6,25.1c5.8-5.3,11.3-10.8,16.4-16.6C416.9,251.3,412.9,243,408.6,235L408.6,235
			z M421.9,263.9c-5.1,5.8-10.7,11.3-16.6,16.5c2.4,6.9,4.5,13.9,6.4,21.1c6-5.6,11.7-11.6,17-17.8
			C426.7,277,424.5,270.4,421.9,263.9L421.9,263.9z M430,288.1c-5.3,6.2-11.1,12.1-17.2,17.6c1.5,6,2.7,12.1,3.8,18.2
			c6.2-5.4,12.1-11.2,17.8-17.3C433.2,300.4,431.7,294.2,430,288.1L430,288.1z M435.3,311.4c-5.7,6-11.7,11.7-17.9,17.1
			c0.9,5.6,1.6,11.3,2.1,17c6.3-5.1,12.4-10.6,18.2-16.4C437.1,323.2,436.3,317.3,435.3,311.4L435.3,311.4z M365.3,173.8
			c-6.8-7.6-14-14.8-21.5-21.7c-3.4,4.2-7.1,8.2-11.2,12c7.1,7.6,13.8,15.4,20.1,23.3C357.3,183.1,361.5,178.5,365.3,173.8
			L365.3,173.8z M341,149.6c-5.8-5.2-11.7-10.2-17.7-15c-3.2-2.5-6.4-5-9.6-7.3c-2.7,3.2-5.6,6.4-8.8,9.4
			c8.8,8.1,17.2,16.3,25.1,24.8C334,157.6,337.7,153.6,341,149.6L341,149.6z M310.6,125c-8.4-6.1-17.1-11.8-25.8-17l-0.6-0.4
			c-1.8,2.1-3.7,4.1-5.7,6.1c8.2,6.7,16.1,13.5,23.7,20.4C305.1,131.1,308,128.1,310.6,125L310.6,125z M173.1,308.6
			c2.8,0.6,5.6,1.1,8.4,1.6c6,1,12.1,1.8,18.5,2.3c-0.9-9.6-1.5-19.7-1.8-30.1c-9-0.5-17.5-1.6-25.5-3.2c0,1.7-0.1,3.3-0.1,5
			C172.4,292.5,172.6,300.6,173.1,308.6L173.1,308.6z M172.8,275.2c7.9,1.6,16.3,2.7,25.2,3.2c-0.3-10.6-0.2-21.6,0.1-33
			c-7.8-0.6-15.3-1.7-22.6-3.2C174.1,253.5,173.2,264.5,172.8,275.2L172.8,275.2z M207.1,419.9c8.3,1.5,16.9,2.5,25.6,3l0.7,0
			c-2.3-3.5-4.5-7.1-6.6-11c-8.8-0.5-17.5-1.4-26-2.7C202.8,412.9,204.9,416.4,207.1,419.9L207.1,419.9z M198.5,405
			c8.6,1.4,17.3,2.4,26.2,3c-2.2-4.3-4.3-8.8-6.2-13.5c-9-0.6-17.9-1.7-26.6-3.2C193.9,396,196.1,400.6,198.5,405L198.5,405z
			 M190.1,387.1c8.7,1.6,17.7,2.8,26.8,3.5c-2.3-5.8-4.3-12-6.2-18.4c-9.2-0.7-18.3-1.9-27.2-3.5
			C185.5,374.9,187.7,381.1,190.1,387.1L190.1,387.1z M182.4,364.5c8.9,1.8,18,3,27.3,3.7c-1.9-7-3.5-14.2-5-21.8
			c-9.3-0.8-18.5-2.1-27.5-4C178.6,350,180.3,357.3,182.4,364.5L182.4,364.5z M176.4,338.3c9,2,18.2,3.3,27.5,4.2
			c-1.5-8.3-2.7-17-3.6-26.1c-6.7-0.5-13.2-1.3-19.5-2.4c-2.5-0.4-5-0.9-7.5-1.4C174,321.4,175,330,176.4,338.3L176.4,338.3z
			 M199.5,136.7c-3.4,10.8-6.6,21.5-9.4,31.9c4.4,0.8,9,1.3,13.6,1.5c0.4-3.1,0.7-6.2,1.1-9.4c0.9-7.5,2-15.1,3.1-22.9
			C205.1,137.7,202.3,137.3,199.5,136.7L199.5,136.7z M189.2,172.4c-2.8,10.7-5.3,21.2-7.4,31.5c5.9,1.2,12.1,2.1,18.4,2.6
			c0.8-10.6,1.9-21.5,3.1-32.6C198.5,173.7,193.8,173.2,189.2,172.4L189.2,172.4z M181.1,207.7c-2.1,10.5-3.7,20.7-5.1,30.7
			c7.2,1.5,14.6,2.6,22.3,3.2c0.2-6.6,0.5-13.2,1-20.1c0.2-3.7,0.5-7.4,0.7-11.1C193.5,209.9,187.2,209,181.1,207.7L181.1,207.7z
			 M352.3,193.1c-5.4,5-11.2,9.7-17.4,14.1c5.9,10.1,11.5,20.5,16.7,31.1c7.5-5.2,14.5-10.9,20.8-16.8c-1.3-2.1-2.6-4.1-4-6.2
			C363.4,207.8,358,200.4,352.3,193.1L352.3,193.1z M374.5,224.8c-6.4,6-13.5,11.7-21.2,17c4.3,9,8.4,18.2,12.1,27.6
			c0.6-0.4,1.1-0.8,1.6-1.2c7.7-5.5,15-11.4,21.6-17.7C384.4,241.8,379.7,233.2,374.5,224.8L374.5,224.8z M390.4,254.2
			c-6.5,6.1-13.6,11.8-21.1,17.2c-0.8,0.6-1.6,1.1-2.4,1.7c3.2,8.3,6.2,16.7,8.8,25.2c3.3-2.2,6.6-4.5,9.8-6.8
			c5.3-3.9,10.5-8,15.4-12.3C397.8,270.7,394.3,262.4,390.4,254.2L390.4,254.2z M402.2,283.2c-4.6,4-9.5,7.8-14.5,11.5
			c-3.5,2.6-7.2,5.1-10.9,7.5c2.2,7.3,4.2,14.7,5.9,22.1c9.1-6,17.7-12.6,25.7-19.8C406.7,297.2,404.6,290.1,402.2,283.2
			L402.2,283.2z M409.6,308.7c-8.1,7.1-16.7,13.6-25.9,19.6c1.3,6,2.5,12,3.5,18.1c9-5.9,17.7-12.3,25.9-19.4
			C412.2,320.8,411,314.7,409.6,308.7L409.6,308.7z M413.9,331.4c-8.3,6.9-17,13.3-25.9,19.1c0.8,5.3,1.5,10.6,2.1,15.9
			c8.9-5.4,17.5-11.4,25.8-17.9C415.3,342.7,414.7,337,413.9,331.4L413.9,331.4z M416.1,353.1c-8.3,6.4-16.9,12.2-25.7,17.6
			c0.4,3.9,0.6,7.8,0.8,11.7c8.9-5.6,17.4-11.7,25.4-18.4C416.5,360.3,416.4,356.7,416.1,353.1L416.1,353.1z M349.9,190.1
			c-6.3-7.9-13-15.7-20.1-23.3c-4.3,3.9-8.8,7.6-13.7,11.1c5.8,8.4,11.4,17.1,16.7,26.1C339,199.6,344.7,195,349.9,190.1
			L349.9,190.1z M327.2,164c-7.9-8.4-16.3-16.6-25.1-24.7c-2.9,2.6-6,5.1-9.2,7.5c2.1,2.6,4.3,5.3,6.4,8c5,6.4,9.9,13.1,14.7,19.9
			C318.7,171.3,323.1,167.8,327.2,164L327.2,164z M299.2,136.7c-7.6-6.9-15.5-13.7-23.7-20.4c-1.8,1.5-3.6,3-5.5,4.3
			c7,7.3,13.8,15.1,20.5,23.2C293.5,141.5,296.5,139.1,299.2,136.7L299.2,136.7z M203.9,312.8c8.9,0.6,18.2,0.7,27.8,0.2
			c-1.4-7.5-2.6-15.2-3.7-23.1c-0.4-2.5-0.7-5.1-1-7.6c-8.7,0.5-17,0.6-25,0.3C202.3,293,203,303.1,203.9,312.8L203.9,312.8z
			 M201.9,278.7c7.8,0.3,16,0.3,24.6-0.3c-1.3-10.6-2.4-21.5-3.3-32.6c-7.2,0.4-14.3,0.3-21.2-0.1
			C201.7,257.1,201.7,268.1,201.9,278.7L201.9,278.7z M238.3,423.2c10.4,0.4,21.1,0.1,31.8-0.8c-2.2-3.5-4.4-7.2-6.4-10.9
			c-10.8,0.9-21.6,1.1-32.2,0.8C233.5,416,235.8,419.7,238.3,423.2L238.3,423.2z M229.2,408.2c10.7,0.5,21.5,0.3,32.4-0.5
			c-2.2-4.3-4.3-8.7-6.3-13.3c-10.9,0.8-21.8,0.9-32.5,0.4C224.8,399.5,226.9,404,229.2,408.2L229.2,408.2z M221.1,390.8
			c10.7,0.6,21.6,0.6,32.5-0.2c-2.5-5.9-4.8-11.9-6.9-18.2c-10.7,0.6-21.4,0.6-31.9,0C216.7,378.8,218.8,385,221.1,390.8
			L221.1,390.8z M213.7,368.5c10.5,0.7,21.1,0.7,31.8,0.1c-2.3-7-4.4-14.3-6.4-21.8c-7.7,0.4-15.4,0.5-23,0.2
			c-2.5-0.1-5-0.2-7.4-0.4C210.1,354.3,211.8,361.6,213.7,368.5L213.7,368.5z M207.9,342.8c2.8,0.2,5.5,0.3,8.3,0.4
			c7.3,0.3,14.6,0.2,21.9-0.2c-2.1-8.5-4-17.2-5.7-26.2c-9.7,0.5-19.1,0.4-28.2-0.1C205.2,325.8,206.4,334.5,207.9,342.8
			L207.9,342.8z M211.9,138.2c-1.1,7.8-2.2,15.5-3.1,23.1c-0.4,3-0.7,6-1.1,9c4,0.1,8.2-0.1,12.3-0.4c-0.1-10.5-0.1-21.1,0-31.8
			C217.3,138.2,214.6,138.3,211.9,138.2L211.9,138.2z M207.3,174.1c-1.3,11.2-2.3,22.1-3.1,32.7c5.5,0.3,11.1,0.3,16.8,0
			c-0.4-10.9-0.7-22-0.9-33.1C215.7,174.1,211.5,174.2,207.3,174.1L207.3,174.1z M203.8,210.7c-0.3,3.7-0.5,7.4-0.7,11.1
			c-0.4,6.8-0.7,13.5-1,20.1c6.8,0.4,13.7,0.4,20.8,0.1c-0.8-10.2-1.4-20.6-1.8-31.2C215.2,211,209.5,211,203.8,210.7L203.8,210.7z
			 M331.7,209.5c-5.9,4-12.1,7.8-18.5,11.3c4.9,10.5,9.5,21.3,13.8,32.2c7.6-3.8,14.8-7.9,21.5-12.4
			C343.2,229.9,337.6,219.6,331.7,209.5L331.7,209.5z M350.1,244c-6.8,4.5-14.1,8.7-21.7,12.5c3.7,9.5,7.1,19.2,10.3,28.9
			c8.2-4.2,16.1-8.8,23.5-13.8C358.5,262.3,354.4,253.1,350.1,244L350.1,244z M363.6,275.3c-7.5,5-15.4,9.6-23.7,13.9
			c2.7,8.4,5.1,16.8,7.4,25.3c8.7-4.3,17.1-9,25.1-14C369.7,292,366.8,283.6,363.6,275.3L363.6,275.3z M373.5,304.3
			c-8.1,5.1-16.5,9.8-25.3,14c1.9,7.5,3.7,15,5.2,22.6c8.7-4.2,17.2-8.9,25.3-14.1l0,0l0.6-0.4C377.6,319,375.7,311.6,373.5,304.3
			L373.5,304.3z M380.3,330.5c-8.4,5.3-17.1,10.1-26.1,14.4c1.2,6.1,2.3,12.3,3.2,18.4c8.3-4,16.4-8.5,24.3-13.4
			c0.7-0.4,1.3-0.8,2-1.3C382.7,342.5,381.6,336.5,380.3,330.5L380.3,330.5z M384.4,352.8l-0.6,0.4c-8.4,5.2-17,9.9-25.8,14.1
			c0.7,5,1.3,10.1,1.9,15.2c9-4.1,17.9-8.7,26.5-13.8C385.8,363.3,385.2,358,384.4,352.8L384.4,352.8z M386.7,372.8
			c-8.6,5-17.5,9.6-26.5,13.6c0.4,4,0.7,8,1,12c9-4.1,17.8-8.7,26.3-13.8C387.3,380.7,387.1,376.8,386.7,372.8L386.7,372.8z
			 M329.8,206.2c-5.3-8.9-10.9-17.6-16.7-26.1c-4.9,3.3-10,6.4-15.3,9.3c4.8,9.1,9.4,18.4,13.8,27.8
			C317.9,213.8,324,210.1,329.8,206.2L329.8,206.2z M310.8,176.9c-4.7-6.8-9.6-13.4-14.6-19.8c-2.1-2.8-4.3-5.5-6.5-8.1
			c-3.5,2.4-7.1,4.7-10.9,6.9c2.5,4.1,4.9,8.3,7.3,12.5c3.3,5.8,6.6,11.7,9.8,17.6C301.1,183.2,306.1,180.2,310.8,176.9L310.8,176.9
			z M287.3,146c-6.7-8.1-13.6-15.9-20.6-23.2c-2.1,1.4-4.3,2.7-6.5,3.9l1,1.5c5.3,7.9,10.5,16,15.6,24.4
			C280.5,150.5,284,148.4,287.3,146L287.3,146z M264,120c-8.9-9.2-18-17.8-27.1-25.7c7.1,9.2,14.2,18.9,21.2,29.2
			C260.1,122.4,262.1,121.2,264,120L264,120z M235.6,312.8c9.6-0.6,19.5-1.7,29.8-3.5c-2.3-10.1-4.5-20.4-6.7-30.9
			c-9.7,1.7-18.9,2.9-27.8,3.5c0.3,2.5,0.6,4.9,1,7.4C233,297.3,234.2,305.1,235.6,312.8L235.6,312.8z M230.4,278.1
			c8.8-0.7,18-1.8,27.5-3.5c-2.1-10.6-4.2-21.3-6.3-32.2c-3.3,0.6-6.6,1.2-9.9,1.6c-4.9,0.7-9.8,1.2-14.6,1.5
			C228,256.7,229.1,267.5,230.4,278.1L230.4,278.1z M274.3,422c8.4-0.9,16.8-2.1,25.1-3.7c-1.6-3.6-3.2-7.3-4.8-11
			c-2.6,0.5-5.3,1-7.9,1.4c-6.3,1-12.7,1.9-19,2.5C269.9,414.8,272.1,418.5,274.3,422L274.3,422z M265.8,407.4
			c6.8-0.6,13.6-1.5,20.4-2.6c2.4-0.4,4.7-0.8,7.1-1.2c-1.7-4.4-3.4-8.8-5.1-13.4c-9.2,1.8-18.5,3-27.7,3.9l-1.2,0.1
			C261.4,398.7,263.5,403.1,265.8,407.4L265.8,407.4z M257.7,390.3c0.8-0.1,1.6-0.1,2.5-0.2c8.9-0.8,17.8-2,26.7-3.7
			c-2-5.9-4-11.9-5.9-18.1c-10,1.8-20.1,3.1-30.2,3.8C252.9,378.4,255.2,384.5,257.7,390.3L257.7,390.3z M249.4,368.4
			c10.1-0.7,20.3-2,30.4-3.8c-2.1-7.1-4.2-14.4-6.2-21.9c-10.2,1.9-20.4,3.1-30.6,3.9C245,354.1,247.1,361.4,249.4,368.4
			L249.4,368.4z M242.1,342.8c10.2-0.7,20.4-2,30.6-3.8c-2.2-8.4-4.3-17.1-6.4-25.9c-10.3,1.7-20.3,2.9-29.9,3.5
			C238,325.6,239.9,334.3,242.1,342.8L242.1,342.8z M225,95c-0.5,13-0.8,26-1,38.9c2.3-0.2,4.5-0.6,6.8-1c0.4-0.1,0.7-0.1,1.1-0.2
			C229.7,120.1,227.4,107.5,225,95L225,95z M223.9,137.8c-0.1,10.7-0.2,21.2-0.1,31.7c3-0.3,5.9-0.7,9-1.3c1.7-0.3,3.5-0.7,5.2-1
			c-1.8-10.2-3.6-20.4-5.4-30.7c-0.4,0.1-0.7,0.1-1.1,0.2C229,137.2,226.4,137.5,223.9,137.8L223.9,137.8z M223.9,173.4
			c0.1,11.2,0.4,22.3,0.9,33.3c3.9-0.3,7.8-0.7,11.7-1.2c2.7-0.4,5.4-0.8,8.1-1.3c-1.8-10.2-3.7-20.6-5.5-31l-0.4-2.1
			c-1.8,0.4-3.5,0.7-5.2,1C230.3,172.6,227.1,173.1,223.9,173.4L223.9,173.4z M224.9,210.5c0.5,10.6,1.1,21,1.8,31.2
			c4.7-0.3,9.5-0.8,14.4-1.5c3.2-0.5,6.5-1,9.7-1.6c-1.9-10.1-3.8-20.4-5.6-30.7c-2.8,0.5-5.5,1-8.3,1.4
			C233,209.8,228.9,210.2,224.9,210.5L224.9,210.5z M309.8,222.6c-6.7,3.5-13.8,6.6-21.1,9.4c3.6,10.7,7,21.6,10.3,32.6
			c8.6-2.9,16.7-6.2,24.4-9.9C319.2,243.8,314.6,233.1,309.8,222.6L309.8,222.6z M324.9,258.3c-7.8,3.7-16.1,7-24.7,9.9
			c3,10,5.8,20,8.6,30.1c9.2-3.2,18-6.9,26.5-11.1C332,277.5,328.5,267.8,324.9,258.3L324.9,258.3z M336.4,291
			c-8.5,4.1-17.4,7.9-26.7,11.1c2.3,8.4,4.4,16.9,6.5,25.4c9.4-3.3,18.6-7,27.5-11.3C341.5,307.8,339,299.3,336.4,291L336.4,291z
			 M344.7,320c-8.9,4.2-18.1,7.9-27.5,11.2c1.8,7.4,3.5,14.9,5.2,22.4c9.4-3.2,18.6-6.9,27.5-11C348.3,335.1,346.6,327.5,344.7,320
			L344.7,320z M350.6,346.5c-8.9,4.1-18.1,7.8-27.4,10.9c1.3,6.1,2.6,12.2,3.8,18.3c9.1-3.1,18-6.7,26.8-10.8
			C352.8,358.8,351.8,352.7,350.6,346.5L350.6,346.5z M354.3,369c-8.7,4-17.6,7.6-26.6,10.7c0.9,4.7,1.8,9.5,2.7,14.3
			c8.7-2.9,17.2-6.1,25.7-9.8C355.6,379,355,374,354.3,369L354.3,369z M356.5,388.1c-8.3,3.6-16.8,6.8-25.4,9.6
			c0.7,3.9,1.4,7.8,2,11.7c8.2-2.7,16.3-5.8,24.2-9.2C357.2,396.2,356.9,392.1,356.5,388.1L356.5,388.1z M308.1,219.1
			c-4.4-9.5-9.1-18.8-13.8-27.9c-5.5,2.8-11.2,5.4-17.1,7.6c3.5,9.7,6.9,19.5,10.3,29.4C294.6,225.5,301.5,222.5,308.1,219.1
			L308.1,219.1z M292.5,187.8c-3.2-5.9-6.4-11.8-9.7-17.5c-2.4-4.2-4.9-8.4-7.4-12.6c-3.8,2-7.7,3.8-11.7,5.5
			c1.7,4.2,3.3,8.4,4.9,12.6c2.5,6.4,4.9,12.8,7.3,19.3C281.6,193,287.2,190.5,292.5,187.8L292.5,187.8z M273.4,154.4
			c-5-8.3-10.2-16.3-15.4-24.1l-1.3-1.9c-2,1-4.1,1.9-6.3,2.8l0.3,0.7c3.9,9.1,7.7,18.3,11.4,27.7
			C266.1,158.1,269.8,156.3,273.4,154.4L273.4,154.4z M254.6,125.3c-5.8-8.5-11.7-16.6-17.6-24.4c4.1,8.8,8,17.8,12,26.9
			C250.9,127,252.8,126.1,254.6,125.3L254.6,125.3z M269.2,308.6c1.2-0.2,2.4-0.4,3.6-0.7c11.2-2.1,22-5,32.3-8.4
			c-2.7-10.1-5.6-20.2-8.6-30.2c-5.4,1.7-11,3.3-16.8,4.7c-5.9,1.4-11.6,2.6-17.2,3.7C264.6,288.3,266.9,298.6,269.2,308.6
			L269.2,308.6z M261.7,274c5.6-1,11.3-2.3,17.1-3.6c5.7-1.4,11.2-2.9,16.5-4.6c-3.3-10.9-6.7-21.7-10.3-32.4
			c-9.4,3.4-19.3,6.2-29.4,8.3l-0.3,0.1C257.5,252.6,259.6,263.4,261.7,274L261.7,274z M303.3,417.4c8.8-1.8,17.5-4.1,26.1-6.8
			c-0.7-3.9-1.3-7.8-2-11.7c-9.6,3-19.2,5.5-28.9,7.5C300.1,410.2,301.7,413.8,303.3,417.4L303.3,417.4z M297.1,402.8
			c9.9-2,19.9-4.6,29.7-7.7c-0.9-4.8-1.8-9.5-2.7-14.2c-10.6,3.5-21.3,6.3-32,8.5C293.7,393.9,295.4,398.4,297.1,402.8L297.1,402.8z
			 M290.7,385.7c10.9-2.2,21.8-5.1,32.6-8.6c-1.2-6.1-2.5-12.3-3.8-18.3c-11.4,3.7-23,6.7-34.7,8.9
			C286.7,373.8,288.7,379.8,290.7,385.7L290.7,385.7z M283.6,363.9c11.8-2.3,23.5-5.3,35-9c-1.7-7.5-3.4-15-5.2-22.4
			c-2.3,0.8-4.6,1.5-7,2.2c-9.6,2.9-19.3,5.4-29.1,7.3C279.4,349.5,281.5,356.8,283.6,363.9L283.6,363.9z M276.4,338.3
			c9.8-1.9,19.4-4.3,28.9-7.2c2.4-0.7,4.8-1.5,7.2-2.3c-2.1-8.5-4.3-17-6.5-25.4c-10.4,3.5-21.3,6.3-32.6,8.5
			c-1.1,0.2-2.3,0.4-3.4,0.6C272.1,321.2,274.2,329.9,276.4,338.3L276.4,338.3z M236.4,135.7c1.8,10.3,3.7,20.5,5.4,30.6l0,0
			c5.8-1.4,11.4-3.2,16.8-5.3c-3.7-9.3-7.5-18.5-11.4-27.6l-0.4-0.9c-3.2,1.1-6.5,2.1-9.9,3L236.4,135.7L236.4,135.7z M242.5,170.1
			l0.4,2.3c1.8,10.4,3.6,20.7,5.5,30.9c8.2-1.7,16.2-4,23.9-6.8c-2.4-6.5-4.8-12.9-7.2-19.3c-1.6-4.2-3.3-8.4-4.9-12.6
			c-5.6,2.1-11.3,4-17.3,5.4L242.5,170.1L242.5,170.1z M249.1,207.1c1.9,10.4,3.7,20.6,5.6,30.7l0.2,0c10-2.1,19.7-4.9,29-8.2
			c-3.3-9.9-6.7-19.7-10.3-29.4C265.7,203,257.5,205.3,249.1,207.1L249.1,207.1z"/>
		<path class="st2" d="M168.6,282c0,8.3-6.4,15.2-19.3,20.6c-12.8,5.4-29.1,8.2-48.9,8.2c-10.4,0-20.2-1.1-29.4-3.3
			c-9.1-2.2-17.5-5.5-25.2-9.9c-13.7-7.9-24.4-18.6-32-31.8C6.2,252.4,2.4,237.9,2.4,222c0-13.5,2.8-26.4,8.3-38.5
			c5.5-12.1,13.3-22.7,23.5-31.7c9.6-8.3,20.7-14.7,33.6-19.1c12.8-4.4,26.7-6.6,41.7-6.6c11.2,0,21.7,1.1,31.6,3.2
			c9.8,2.1,16.2,4.5,19.1,7.1c1.4,1.2,2.5,4.1,3.2,8.6c0.7,4.5,1,10.5,1,18.2c0,2.6-0.4,4.6-1.2,5.9c-0.8,1.3-2,1.9-3.6,1.9
			c-2.5,0-4.9-2.7-7.2-8c-0.9-2.2-1.7-3.9-2.3-5.1c-4.2-8.3-9.8-14.4-16.8-18.4c-7-4-15.7-6-26.1-6c-20.4,0-36.9,8.1-49.8,24.4
			c-12.8,16.2-19.2,37.4-19.2,63.3c0,23.5,6.3,42.9,19,58.4c12.6,15.5,28.4,23.2,47.1,23.2c11.4,0,19.5-2.1,24.1-6.4
			c4.7-4.3,7-12.2,7-23.9V240c0-5.1-0.6-8.3-1.7-9.8c-1.1-1.5-4-2.6-8.6-3.3c-1.5-0.3-3-0.5-4.3-0.6c-1.4-0.1-2.6-0.2-3.6-0.2
			c-3.8-0.2-6.2-0.6-7.2-1.2c-1-0.6-1.5-1.6-1.5-2.9c0-1.2,0.5-2.1,1.5-2.7c1-0.6,2.4-1,4.3-1c0.6,0,4.8,0.4,12.8,1.1
			c8,0.7,15.7,1.1,23.2,1.1c10.8,0,21.6-0.6,32.4-1.8c2.3-0.3,3.6-0.4,4.2-0.4c1.6,0,2.9,0.3,3.8,1c1,0.6,1.4,1.5,1.4,2.7
			c0,1.3-0.5,2.3-1.3,2.9c-0.9,0.6-3,1-6.2,1.2c-0.9,0-2,0-3.2,0.2c-1.2,0.1-2.5,0.4-3.9,0.6c-4,0.7-6.5,1.8-7.6,3.3
			c-1.1,1.5-1.6,4.8-1.6,9.8V282L168.6,282z M345.6,254.6c0,16.2-6.3,29.7-18.8,40.3c-12.6,10.7-28.6,16-48,16
			c-9.7,0-18.8-1.1-27.1-3.2s-14.7-5-19.2-8.4c-1.8-1.4-3-3.1-3.8-5.1c-0.8-2-1.2-5.2-1.2-9.6v-9c0-9.5,0.4-15.5,1.2-17.9
			c0.8-2.5,2.3-3.7,4.3-3.7c2.6,0,4.5,3,5.7,9.2c0.8,4.4,1.7,7.8,2.7,10.2c3.7,9.3,9.2,16.5,16.5,21.8c7.3,5.3,15.5,7.9,24.7,7.9
			c10.7,0,19.7-3.2,26.8-9.5c7.2-6.4,10.8-14.2,10.8-23.5c0-7.6-2.7-14.5-8.2-21c-5.4-6.5-13.6-12.4-24.4-17.8
			c-3.2-1.5-7.9-3.6-14.1-6.4c-13.3-5.9-22.3-10.8-26.9-15c-5.6-5-9.7-10.3-12.4-16c-2.6-5.7-4-11.9-4-18.6
			c0-14.8,5.5-26.7,16.6-35.6c11.1-8.9,26-13.4,44.8-13.4c8.4,0,16.3,0.8,23.9,2.5c7.5,1.7,12.6,3.5,15.2,5.5c1.2,0.9,2,3.6,2.4,8
			c0.5,4.4,0.7,12,0.7,22.6c0,2.2-0.3,3.7-1,4.7c-0.7,1-1.8,1.4-3.2,1.4c-2.4,0-4.8-2.9-7.3-8.7c-1.2-2.6-2.2-4.6-3-6.1
			c-4.5-8.8-9-14.8-13.5-18c-4.5-3.2-10.2-4.8-17.2-4.8c-10.2,0-18.3,2.6-24.3,7.7c-6,5.1-9,12.1-9,20.8c0,6.9,2.3,12.6,6.9,17.3
			c4.6,4.7,14.2,10.1,28.8,16.3c20.5,8.8,34.7,17.5,42.6,26.4C341.7,230.6,345.6,241.5,345.6,254.6L345.6,254.6z M404.3,268.1
			c-1.7,5-3,9.4-3.9,13.2c-0.9,3.7-1.3,6.4-1.3,8.1c0,2.4,0.6,4.1,1.8,5.2c1.2,1.1,3.6,1.8,7.2,2.3c0.6,0.1,1.3,0.2,2.3,0.4
			c7.8,1.2,11.6,3.1,11.6,5.9c0,1.1-0.5,1.9-1.4,2.5c-0.9,0.6-2.3,1-4.1,1c-0.6,0-4.2-0.3-10.9-1c-6.8-0.6-13.2-0.9-19.5-0.9
			c-3.9,0-8.4,0.2-13.4,0.7c-5.1,0.5-8.2,0.6-9.3,0.6c-2.2,0-3.8-0.3-4.9-1c-1.2-0.6-1.7-1.6-1.7-2.8c0-1.2,0.5-2.1,1.3-2.7
			c0.9-0.6,2.9-1,5.8-1.2c0.1,0.2,0.2,0.2,0.3,0.2c4.5-0.4,7.8-1.2,9.9-2.4c3.9-2.3,8-9.1,12.5-20.5l0.1-0.1l55-142.7
			c0.2-0.4,0.4-0.9,0.6-1.3c1.4-3.6,3.2-5.4,5.3-5.4c2.4,0,4.7,2.8,6.6,8.3c0.7,2.1,1.3,3.6,1.8,4.7l52.3,131.7
			c3.3,8.4,6.1,14.2,8.5,17.4c2.4,3.2,5.1,5.6,8.4,7.3c1.2,0.6,2.4,1.2,3.8,1.6c1.3,0.4,2.8,0.8,4.3,1.2c0,0,0.1,0.1,0.2,0.4
			c3.1,0.9,4.6,1.9,4.6,3.1c0,1.2-0.5,2.2-1.4,2.8c-0.9,0.6-2.4,0.9-4.4,0.9c-2.2,0-6.6-0.2-13.4-0.7c-6.8-0.5-12.6-0.7-17.3-0.7
			c-7.8,0-15.6,0.2-23.5,0.7c-7.9,0.5-11.9,0.7-12,0.7c-2.3,0-3.8-0.2-4.8-0.7c-0.9-0.5-1.3-1.4-1.3-2.7c0-2.4,3.1-3.7,9.5-4.2
			c0.7-0.1,1.2-0.1,1.5-0.1c4.2-0.4,7-1,8.3-1.9c1.3-0.9,2-2.5,2-4.8c0-1.4-0.3-3.2-0.8-5.3c-0.6-2.1-1.3-4.5-2.4-7.3l-13.6-35.2
			c-0.4-0.8-0.9-1.4-1.5-1.7c-0.6-0.3-1.8-0.5-3.4-0.5h-43c-0.8,0-1.6,0.2-2.3,0.7c-0.7,0.4-1.2,1.1-1.6,1.8L404.3,268.1
			L404.3,268.1z M418.6,226c0,0.2,0,0.5-0.1,0.8c-0.2,0.8-0.3,1.5-0.4,2c0,0.6,0.2,0.9,0.6,1.2c0.4,0.3,0.9,0.4,1.8,0.4h34.9
			c0.8,0,1.5-0.2,2-0.7c0.5-0.4,0.7-1,0.7-1.8c0-0.4-0.1-0.9-0.3-1.6c-0.1-0.4-0.2-0.7-0.3-0.9l-18.6-48.2c-0.2-0.8-0.6-1.4-0.9-1.8
			c-0.4-0.4-0.8-0.6-1.2-0.7c-0.4,0.1-0.7,0.3-1.1,0.7c-0.4,0.4-0.7,0.9-0.9,1.6L418.6,226L418.6,226z"/>
		
			<radialGradient id="SVGID_3_" cx="-24.853" cy="634.8223" r="12.3135" gradientTransform="matrix(3.0407 -0.7327 0.7537 3.2925 -174.9865 -2029.9709)" gradientUnits="userSpaceOnUse">
			<stop  offset="0.13" style="stop-color:#FFFFFF"/>
			<stop  offset="0.3076" style="stop-color:#FFFFFF"/>
			<stop  offset="0.4852" style="stop-color:#FFFFFF"/>
			<stop  offset="0.87" style="stop-color:#D4D6D8"/>
		</radialGradient>
		<path class="st6" d="M218.9,51.6c19.1-4.6,37.1,2.1,40,14.9c2.9,12.8-10.2,27-29.3,31.6c-19.1,4.6-37.1-2.1-40-14.9
			S199.7,56.2,218.9,51.6z"/>
	</g>
</g>
</svg>
