<?xml version="1.0" encoding="utf-8"?>
<!-- Generator: Adobe Illustrator 16.0.0, SVG Export Plug-In . SVG Version: 6.00 Build 0)  -->
<!DOCTYPE svg PUBLIC "-//W3C//DTD SVG 1.1//EN" "http://www.w3.org/Graphics/SVG/1.1/DTD/svg11.dtd">
<svg version="1.1" id="Layer_1" xmlns="http://www.w3.org/2000/svg" xmlns:xlink="http://www.w3.org/1999/xlink" x="0px" y="0px"
	 width="273px" height="274px" viewBox="0 0 273 274" style="enable-background:new 0 0 273 274;" xml:space="preserve">
<style type="text/css">
<![CDATA[
	.st0{fill:#AFD9E5;}
	.st1{fill:none;}
	.st2{fill-rule:evenodd;clip-rule:evenodd;fill:url(#SVGID_1_);}
	.st3{fill-rule:evenodd;clip-rule:evenodd;fill:url(#SVGID_2_);}
	.st4{fill-rule:evenodd;clip-rule:evenodd;fill:url(#SVGID_3_);}
]]>
</style>
<linearGradient id="SVGID_1_" gradientUnits="userSpaceOnUse" x1="-131.8652" y1="557.1318" x2="-107.4368" y2="611.999" gradientTransform="matrix(4.399 0 0 4.399 663.8477 -2435.9023)">
	<stop  offset="0.38" style="stop-color:#0095DA"/>
	<stop  offset="0.62" style="stop-color:#007AB4"/>
</linearGradient>
<circle class="st2" cx="137.5" cy="135.6" r="132.1"/>
<radialGradient id="SVGID_2_" cx="-156.3564" cy="545.3359" r="7.4989" gradientTransform="matrix(8.9736 -2.206 1.9357 10.9114 463.9844 -6253.5)" gradientUnits="userSpaceOnUse">
	<stop  offset="0" style="stop-color:#FFFFFF"/>
	<stop  offset="1" style="stop-color:#0095DA"/>
</radialGradient>
<path class="st3" d="M106.6,8.3c35.1-8.6,67.3,5.8,72,32.2c4.7,26.4-19.9,54.8-55,63.4c-35.1,8.6-67.3-5.8-72-32.2
	C46.9,45.3,71.5,16.9,106.6,8.3z"/>
<ellipse transform="matrix(-0.2418 -0.9703 0.9703 -0.2418 94.1317 166.5441)" class="st1" cx="112.1" cy="46.5" rx="13.6" ry="20.8"/>
<path class="st0" d="M8.2,108.5c-0.3,4.3-0.2,8.6,0.3,12.8c1.7-3.4,3.5-6.6,5.4-9.8c-0.7-3.8-1.1-7.6-1.2-11.3
	c-1.2,1.4-2.4,2.9-3.6,4.4c0.4-1.9,0.9-3.7,1.4-5.5c0.7-0.9,1.4-1.7,2.2-2.5c0-1.8,0.2-3.6,0.4-5.4c1.7-4.7,3.6-9.4,5.8-13.8
	c2.2-2.1,4.5-4.1,6.8-6.1c0.8-2.9,1.9-5.8,3.1-8.6c0.2-0.4,0.4-0.8,0.6-1.2c-0.7,0.4-1.4,0.8-2.1,1.2c1-1.5,2-2.9,3-4.4
	c0.3-0.2,0.6-0.3,0.9-0.5c0.5-1,1.1-2,1.7-3c7.1-9.2,15.3-17.4,24.5-24.5l0.7,0c1.1-1.1,2.3-2.1,3.5-3.1
	c21.5-15.2,47.7-24.1,76-24.1c5.4,0,10.7,0.3,15.9,1c0.3,0.1,0.6,0.1,0.9,0.2l0.2-0.1c1.3,0.2,2.6,0.4,3.9,0.6
	c-0.2,0.1-0.5,0.3-0.7,0.4c4.2,1.2,8.2,2.7,11.9,4.5c1.5-0.3,3-0.6,4.6-0.8c-2.3-0.9-4.6-1.6-7-2.3c8,1.8,15.7,4.4,23,7.6
	c0.8,0.5,1.5,1,2.3,1.5c0.4,0,0.7,0,1.1,0c1.8,0.8,3.6,1.7,5.3,2.6c-1-0.1-2-0.1-2.9-0.2c2.4,1.9,4.7,3.9,6.8,6.1
	c2.8,0.4,5.5,0.8,8.3,1.4c3.9,2.6,7.6,5.4,11.2,8.4c1.1,1.5,2.2,3,3.2,4.6c1.1,0.4,2.2,0.8,3.3,1.2c1.5,1.4,3,2.9,4.4,4.4
	c-1.9-0.8-3.8-1.6-5.8-2.4c2,3.6,3.6,7.2,4.9,11c2,0.9,3.9,1.9,5.8,3c0.8,0.5,1.7,0.9,2.5,1.4c-1.9-4.3-4.2-8.5-7-12.6
	c2.9,3.1,5.7,6.3,8.3,9.7c0.8,1.6,1.5,3.3,2.1,4.9c0.9,0.6,1.8,1.1,2.7,1.7c1.2,1.7,2.3,3.5,3.4,5.2c-1.5-1.1-3.1-2.2-4.7-3.3
	c1.1,3.2,1.9,6.5,2.6,9.8c0.5,2.4,0.8,4.9,1,7.3c2,2,4,4,6,6.1c0.9,1,1.8,2,2.7,3c-0.6-5-1.6-10-3.1-15.2c1.7,3.3,3.4,6.7,4.8,10.2
	c0.5,2.8,0.8,5.5,1.1,8.2c1.2,1.4,2.3,2.9,3.5,4.3c1.3,4.2,2.3,8.4,3.2,12.7c-0.1,4.9-0.6,9.7-1.3,14.3c1.3,2.4,2.6,4.8,3.8,7.3
	c0,1.5,0.1,3,0.1,4.5c0,0.4,0,0.8,0,1.2c-1.5-3.1-3-6.2-4.5-9.2c-0.7,3.4-1.5,6.6-2.4,9.8c2.2,3.8,4.2,7.7,6.3,11.8
	c-0.3,3.4-0.8,6.8-1.4,10.1c-3.3,6.3-7.1,12.3-11.1,17.9c0.8,3.8,1.4,7.6,1.9,11.6c0.2-0.2,0.3-0.4,0.5-0.7
	c-1.4,3.1-2.8,6.2-4.4,9.2c-2.4,2.7-4.8,5.4-7.3,7.9c0.1,1.3,0.2,2.6,0.3,4c-0.7,1.1-1.5,2.2-2.2,3.2c-0.1-1.7-0.2-3.4-0.3-5
	c-3.6,3.5-7.4,6.8-11.3,10c0.2,2.2,0.3,4.4,0.4,6.6c3.5-3,6.8-6.2,9.9-9.6c-4.3,5.8-9,11.2-14.2,16.3c-4.4,3.4-8.9,6.6-13.6,9.5
	c0,0.7,0,1.4,0.1,2.1c-0.8,0.6-1.6,1.1-2.4,1.7c0-0.8,0-1.6-0.1-2.4c-5.2,3.1-10.7,5.9-16.3,8.4c0.1,1.3,0.1,2.5,0.2,3.8
	c-0.8,0.4-1.6,0.8-2.4,1.2c0-1.3-0.1-2.6-0.2-3.9c-4.8,2.1-9.8,3.9-14.8,5.6c0.2,1.4,0.5,2.9,0.7,4.3c-0.8,0.3-1.5,0.5-2.3,0.8
	c-0.2-1.4-0.5-2.9-0.7-4.3c-5.1,1.6-10.4,3-15.6,4.1c0.6,1.4,1.3,2.7,2,4.1c-0.8,0.2-1.6,0.3-2.4,0.5c-0.7-1.3-1.3-2.7-1.9-4
	c-5,1-10.1,1.8-15.1,2.3c0.8,1.2,1.7,2.4,2.6,3.6c-0.9,0.1-1.9,0.1-2.9,0.2c-0.8-1.1-1.6-2.3-2.4-3.5c-6.5,0.6-13,0.8-19.4,0.7
	c0.6,0.8,1.2,1.6,1.8,2.3c-1.1-0.1-2.2-0.2-3.3-0.4c-0.5-0.7-1-1.4-1.5-2.1c-0.8,0-1.5-0.1-2.3-0.1c-4.7-0.3-9.4-0.8-14-1.5l0.2,0.3
	c-9.2-2.5-18-5.9-26.3-10.2c-0.9-1.7-1.7-3.3-2.5-5c-5.7-1.9-11.1-4.2-16.3-6.8c-4-3-7.9-6.3-11.5-9.7c1.9,1.3,3.8,2.6,5.8,3.8
	c-0.7-2.5-1.4-5-2.1-7.5c-4.4-2.5-8.6-5.3-12.5-8.4c0.2,1.3,0.5,2.6,0.8,3.9c-1.1-1.2-2.2-2.5-3.2-3.7c-0.2-0.8-0.3-1.7-0.5-2.5
	c-1.7-1.5-3.4-3-5-4.5c-4.3-6-8.1-12.4-11.4-19.1c-0.1-1.7-0.2-3.4-0.2-5c-2-2.7-3.8-5.6-5.5-8.6c-1.8-5.1-3.4-10.4-4.6-15.9
	c0.2,0.6,0.4,1.2,0.6,1.7c0.3-2.5,0.6-5,1-7.4c-1.5-2.9-2.8-5.9-4.1-9c-0.3-3-0.5-6-0.6-9c1.5,4.9,3.4,9.6,5.4,14
	c0.6-3.1,1.3-6.2,2.1-9.3c-2.5-5.2-4.4-10.6-5.6-16.1c-0.7,1.6-1.4,3.2-2,4.8c0-2.3,0.1-4.6,0.3-6.9c0.3-0.7,0.6-1.4,0.9-2.1
	c-0.2-1.1-0.3-2.3-0.5-3.4C6.6,117.3,7.3,112.9,8.2,108.5L8.2,108.5z M269,103.8l0.1,0.2l0,0l0,0l-0.1,0.1L269,103.8L269,103.8z
	 M272.8,135.9L272.8,135.9L272.8,135.9L272.8,135.9L272.8,135.9L272.8,135.9L272.8,135.9z M272.8,136.2c0,4.5-0.2,9-0.7,13.4
	l0.2,0.1l-0.2,0.5c-2.3,21.8-9.7,42.1-21.1,59.6l0,0l-0.1,0.1c-1,1.6-2.1,3.2-3.2,4.7l0,0.1l-0.1,0c-4.3,6-9.2,11.7-14.4,17
	c-19.1,19.1-43.9,32.5-71.7,37.5C224.5,257.8,272.5,202.6,272.8,136.2L272.8,136.2z M161.4,269.1c-1,0.2-2,0.3-3.1,0.5
	C159.4,269.4,160.4,269.3,161.4,269.1L161.4,269.1z M157.8,269.7c-0.9,0.1-1.8,0.3-2.7,0.4C156,269.9,156.9,269.8,157.8,269.7
	L157.8,269.7z M154.3,270.2c-0.8,0.1-1.6,0.2-2.3,0.3C152.7,270.3,153.5,270.2,154.3,270.2L154.3,270.2z M150.7,270.5
	c-0.7,0.1-1.4,0.1-2,0.2C149.3,270.7,150,270.6,150.7,270.5L150.7,270.5z M147.1,270.8c-0.6,0-1.2,0.1-1.8,0.1
	C145.9,270.9,146.5,270.9,147.1,270.8L147.1,270.8z M143.6,271c-0.6,0-1.1,0-1.7,0.1C142.5,271.1,143,271.1,143.6,271L143.6,271z
	 M140.1,271.2c-0.5,0-1.1,0-1.6,0C139,271.2,139.5,271.2,140.1,271.2L140.1,271.2z M136.6,271.2c-0.5,0-1.1,0-1.6,0
	C135.5,271.2,136,271.2,136.6,271.2L136.6,271.2z M133.1,271.1c-0.6,0-1.1,0-1.7-0.1C132,271.1,132.5,271.1,133.1,271.1L133.1,271.1
	z M129.7,271c-0.6,0-1.2-0.1-1.8-0.1C128.5,270.9,129.1,270.9,129.7,271L129.7,271z M126.4,270.7c-0.7-0.1-1.3-0.1-2-0.2
	C125,270.6,125.7,270.7,126.4,270.7L126.4,270.7z M123.1,270.4c-0.8-0.1-1.5-0.2-2.3-0.3C121.5,270.2,122.3,270.3,123.1,270.4
	L123.1,270.4z M119.8,270c-0.9-0.1-1.8-0.2-2.6-0.4C118.1,269.8,119,269.9,119.8,270L119.8,270z M116.7,269.6c-1-0.2-2-0.3-3.1-0.5
	C114.6,269.3,115.6,269.4,116.7,269.6L116.7,269.6z M113.5,269.1c-27.7-5-52.6-18.4-71.7-37.5c-0.5-0.5-1.1-1.1-1.6-1.6l-0.3-0.2
	l0,0c-14.3-14.9-25.2-33-31.6-53.2l-0.2,0l0-0.4c-3.9-12.6-6-26-6-39.8C2.6,202.6,50.5,257.8,113.5,269.1L113.5,269.1z M2.3,135.9
	L2.3,135.9L2.3,135.9L2.3,135.9L2.3,135.9L2.3,135.9L2.3,135.9z M5.6,105.5l-0.2-0.2l0.3-0.4C5.7,105.1,5.6,105.3,5.6,105.5
	L5.6,105.5z M6.5,101.8c0.1-0.4,0.1-0.7,0.2-1.1l0.1,0C6.7,101.1,6.6,101.4,6.5,101.8L6.5,101.8z M127.9,0.3
	c3.2-0.2,6.4-0.4,9.6-0.3C134.3,0,131.1,0.1,127.9,0.3L127.9,0.3z M137.6,0c0.7,0,1.5,0,2.2,0C139,0,138.3,0,137.6,0L137.6,0z
	 M120.8,36.1c4.7-4.8,9.7-9.1,15.4-12.9c-0.9-0.3-1.8-0.6-2.8-0.8c-1.8,1.7-3.6,3.4-5.3,5.2c-1.7,1.8-3.3,3.6-4.9,5.5
	C122.4,34.1,121.6,35.1,120.8,36.1L120.8,36.1z M138.7,21.6c2-1.3,4.2-2.5,6.4-3.6c3.2-1.6,6.5-3.1,10-4.3c-0.3-0.2-0.6-0.3-0.9-0.5
	c-1.9-0.9-3.9-1.7-5.9-2.4c-4.5,3-8.8,6.2-12.7,9.7C136.6,20.8,137.7,21.2,138.7,21.6L138.7,21.6z M158.3,12.6
	c2.4-0.8,4.8-1.5,7.3-2.1c-3.5-1.5-7.1-2.7-11-3.7c-1.3,0.8-2.6,1.5-3.8,2.3c1.5,0.6,3,1.2,4.4,1.9
	C156.3,11.5,157.3,12.1,158.3,12.6L158.3,12.6z M178.4,10.6c-1.9,0.2-3.7,0.5-5.4,0.8c2.5,1.3,4.8,2.8,7,4.4c2.6-0.2,5.3-0.2,8-0.3
	c-1.6-1-3.3-1.9-5-2.8C181.5,12,180,11.3,178.4,10.6L178.4,10.6z M169.2,12.2c-2.8,0.6-5.6,1.3-8.2,2.1c1.6,1,3.2,2.1,4.6,3.3
	c3.5-0.7,7-1.1,10.5-1.5c-1.8-1.2-3.7-2.3-5.7-3.3C170.1,12.6,169.7,12.4,169.2,12.2L169.2,12.2z M158,15.2
	c-4.2,1.4-8.1,3.1-11.8,4.9c-1.6,0.8-3.2,1.7-4.8,2.6c1,0.5,1.9,1,2.8,1.5c5.2-2.3,10.5-4.1,15.8-5.4c0.9-0.2,1.7-0.4,2.6-0.6
	C161.1,17.1,159.6,16.1,158,15.2L158,15.2z M139,24.3c-5.9,3.8-11.2,8.2-16.1,13.1c6.1-4.9,12.3-8.8,18.6-11.9
	c-0.6-0.3-1.1-0.6-1.7-0.8C139.6,24.5,139.3,24.4,139,24.3L139,24.3z M121.7,38.7l-0.3,0.3l-1.6-1.5c-0.3,0.5-0.7,0.9-1,1.4
	l-0.6-0.5l-1.3-0.9l0,0l0,0c1.4-2,3-4,4.5-5.9c1.6-1.9,3.3-3.8,5-5.6c1.4-1.4,2.7-2.8,4.2-4.2c-1.4-0.3-2.8-0.5-4.3-0.6
	c-1.5,2-2.9,3.9-4.2,5.9c-1.1,1.7-2.1,3.5-3,5.2c-0.9,1.7-1.6,3.4-2.3,5.1l-0.1,0l-2.1-0.8l0,0v0c0.1-0.2,0.2-0.4,0.2-0.6l-1.8-0.1
	l0,0.5l-1.7,0.1l0,0.1l-2.3,0.8c-1.7-5-3.7-9.2-5.9-13.2c-1.5,0.5-2.9,1.1-4.2,1.7c1.1,1,2.1,2,3.1,3.1c1.2,1.2,2.3,2.4,3.4,3.6
	c1.1,1.2,2.1,2.4,3,3.6h0l0,0l-1.9,1.5l0,0l0,0c-0.9-1.1-1.9-2.3-2.9-3.5c-1-1.2-2.2-2.4-3.3-3.6c-1.2-1.2-2.4-2.5-3.7-3.7
	c-1.5,0.8-3,1.6-4.4,2.5c4.6,2.5,8.9,5.2,12.8,8.2l-1.5,1.9c-0.4-0.3-0.8-0.6-1.3-1l-0.4,2.3l0,0h0c-0.8-0.1-1.6-0.3-2.5-0.4l-0.1,2
	l-0.1,0c-0.7,0-1.4-0.1-2.1-0.1l0.2,1.1l0,0c-4.2,0.6-8.4,1.4-12.7,2.4c-3.1,0.7-6.3,1.6-9.4,2.5c-0.6,1.4-1,2.8-1.3,4.2
	c2.8-1.1,5.7-2,8.7-2.9c5.1-1.5,10.3-2.7,15.6-3.6l0,0l0.4,2.4l0,0c-5.3,0.9-10.4,2.1-15.3,3.5c-3.3,1-6.6,2.1-9.8,3.3
	c-0.1,0.9-0.1,1.8-0.1,2.7c1.6-0.7,3.2-1.5,4.8-2.2c5.5-2.3,11.1-4.3,16.8-5.8l0,0l0.6,2.3l0,0C89.9,54.1,84.4,56,79,58.3
	c-1.9,0.8-3.7,1.6-5.6,2.5c0,0.4,0.1,0.8,0.2,1.2l0,0c0.1,0.4,0.2,0.8,0.3,1.2c0.1,0.4,0.2,0.7,0.3,1.1c0.3-0.2,0.6-0.3,0.9-0.5
	c6.8-3.8,14-7,21.8-9.7l0.1,0l0.8,2.3l0,0l0.1,0.2l1-0.7l0.2,0.3l0.1-0.1l0,0l0,0l1.8,1.6l0,0l0,0c-5.9,6.5-11.4,13.2-16.3,20
	c1.2,0.8,2.5,1.4,3.8,2.1c3.9-7.5,8.2-14.8,12.8-21.9l0,0l0,0l2,1.3l0.6-1.6l2.2,0.8c-3.1,8.2-5.9,16.3-8.5,24.2
	c1.6,0.3,3.2,0.5,4.9,0.7c1.2-8.1,2.5-16.4,4-24.9h0l0-0.1l2.4,0.4l0,0.1v0c-1.5,8.4-2.8,16.6-4,24.6c1.6,0.1,3.2,0,4.8-0.1
	c0.1-8.4,0.3-16.9,0.7-25.4l2.4,0.1l0,0.1l2.2-0.4l0,0h0c1.5,8.1,3,16.2,4.5,24.2l0.2-0.1c2-0.5,3.9-1,5.8-1.7
	c-3.4-7.9-6.9-15.7-10.5-23.3l0,0l2.2-1l0,0l0,0c0.3,0.7,0.7,1.5,1,2.2l0.7-0.6l-0.7-0.6l-0.2-0.1l1.5-1.8l0.2,0.1
	c6.5,5.4,13,11.5,19.4,18.1c1.1-0.8,2.2-1.6,3.2-2.5c-6.5-5.3-13.3-10.5-20.4-15.5l1.4-1.9c7.2,5.2,14.2,10.5,20.8,15.9
	c1.2-1.1,2.3-2.3,3.3-3.5c-7.4-4.3-15-8.1-22.5-11.4l-0.1,0l0.8-1.8l0.6-2.1l0,0c9.1,2.4,17.8,5.3,25.9,8.4c0.5-0.9,0.9-1.8,1.3-2.7
	c0.1-0.4,0.3-0.7,0.4-1.1c-7.8-1.8-16.1-3.1-24.8-3.9l0.2-2.4c8.9,0.9,17.3,2.2,25.3,4c0.3-1.1,0.5-2.2,0.6-3.3
	c-8.4-1-17-1.4-26-1.1l-0.1-2.4l0.1,0l-0.3-2.2l0.3,0l-0.5-1.6c7.9-2.3,16.2-3.8,24.8-4.4c-0.4-1-1-2-1.5-2.9
	c-8,1.5-15.7,3.8-23,6.9l-0.9-2.2c7.1-3.1,14.6-5.3,22.4-6.8c-0.8-0.9-1.6-1.8-2.5-2.7c-7.3,2.4-14.3,5.6-21,10l-1.1-1.7
	c-0.9,0.7-1.7,1.4-2.6,2.1L121.7,38.7L121.7,38.7z M132.8,19.8c3.9-3.5,8.1-6.8,12.6-9.9c-2.3-0.6-4.7-1.2-7.1-1.6
	c-3.7,3.3-7.1,6.9-10.2,10.6C129.7,19.2,131.2,19.4,132.8,19.8L132.8,19.8z M147.9,8.2c1.1-0.7,2.2-1.4,3.4-2.1
	c-2.8-0.6-5.8-1.1-8.8-1.4c-0.7,0.5-1.3,1.1-2,1.6C143.1,6.8,145.6,7.5,147.9,8.2L147.9,8.2z M115.4,34.6c0.5-1.1,1-2.3,1.6-3.4
	c0.9-1.8,2-3.6,3.1-5.4c1-1.6,2.1-3.2,3.3-4.8c-1.6,0-3.2,0-4.9,0.1c-0.5,1.4-1,2.9-1.4,4.4c-0.5,1.7-0.9,3.4-1.2,5.2
	C115.7,32,115.5,33.3,115.4,34.6L115.4,34.6z M125.2,18.7c3-3.8,6.3-7.4,10-10.8c-3.1-0.4-6.4-0.5-9.7-0.5c-2.3,3.4-4.3,7.2-6,11.2
	C121.4,18.6,123.3,18.6,125.2,18.7L125.2,18.7z M137.5,5.8c0.5-0.5,1.1-1,1.7-1.4c-3.7-0.3-7.5-0.3-11.4-0.2
	c-0.2,0.3-0.4,0.5-0.6,0.8C130.7,5.1,134.1,5.3,137.5,5.8L137.5,5.8z M112.9,34.7c0.1-1.5,0.3-3,0.6-4.5c0.3-1.8,0.7-3.6,1.2-5.4
	c0.3-1.2,0.7-2.4,1.1-3.5c-1.2,0.1-2.4,0.3-3.7,0.5C112.3,26,112.6,30.2,112.9,34.7L112.9,34.7z M116.8,18.8c1.6-4,3.5-7.8,5.7-11.3
	c-3.4,0.2-6.8,0.6-10.2,1.2c-0.2,3.7-0.2,7.2-0.1,10.7C113.7,19.2,115.3,19,116.8,18.8L116.8,18.8z M124.2,5.1
	c0.2-0.2,0.3-0.4,0.5-0.7c-2.4,0.2-4.8,0.4-7.3,0.8c-1.6,0.2-3.3,0.5-4.9,0.8l0,0.3C116.4,5.6,120.3,5.2,124.2,5.1L124.2,5.1z
	 M110.5,34.2c-0.3-4.1-0.5-8-0.7-11.9c-0.3,0.1-0.6,0.1-1,0.2c-1.1,0.3-2.3,0.6-3.4,0.9C107.3,26.8,109,30.3,110.5,34.2L110.5,34.2z
	 M109.8,19.9c-0.1-3.5,0-7,0.1-10.7c-1.1,0.2-2.1,0.5-3.2,0.7c-2.8,0.7-5.6,1.5-8.3,2.5c2,2.8,3.9,5.6,5.6,8.6l0.2,0.4
	c1.3-0.4,2.7-0.8,4-1.1C108.8,20.1,109.3,20,109.8,19.9L109.8,19.9z M110,6.7l0-0.2c-4.5,1-9,2.2-13.2,3.6l0.2,0.2
	c3-1.1,6-2,9.2-2.8C107.4,7.2,108.7,7,110,6.7L110,6.7z M102,22.1c-1.8-3-3.8-5.9-5.9-8.9c-2.6,1-5.1,2.1-7.6,3.3
	c2.7,2.3,5.7,4.9,8.6,7.6C98.7,23.4,100.3,22.7,102,22.1L102,22.1z M94.6,11.2l-0.2-0.3c-2.9,1.1-5.7,2.2-8.5,3.5l0.5,0.4
	C89.1,13.5,91.8,12.3,94.6,11.2L94.6,11.2z M94.8,25.3c-2.9-2.7-5.9-5.3-8.6-7.5c-2.9,1.6-5.7,3.3-8.3,5.2c3.5,1.4,7,2.9,10.3,4.5
	c0.5,0.3,1.1,0.5,1.6,0.8C91.4,27.2,93,26.2,94.8,25.3L94.8,25.3z M84.2,16.1l-0.6-0.5c-3.5,1.7-6.8,3.6-10,5.7
	c0.5,0.2,1.1,0.4,1.6,0.6C78,19.8,81,17.9,84.2,16.1L84.2,16.1z M97.9,35.6c-2.5-1.6-5.2-3.2-8-4.6c-0.9,0.6-1.8,1.3-2.6,1.9
	c0.7,0.1,1.4,0.3,2.1,0.4c2.4,0.5,4.8,1.1,6.9,1.8C96.9,35.3,97.4,35.4,97.9,35.6L97.9,35.6z M87.5,29.8l-0.4-0.2
	c-3.7-1.8-7.6-3.4-11.5-5c-2.5,1.9-4.9,4-7.1,6.2c5.1,0.3,10.5,0.8,15.7,1.7C85.3,31.5,86.4,30.6,87.5,29.8L87.5,29.8z M73,23.6
	c-0.6-0.2-1.2-0.5-1.9-0.7c-3.4,2.3-6.6,4.9-9.6,7.5c1.2,0,2.5,0.1,3.8,0.1C67.6,28.1,70.2,25.8,73,23.6L73,23.6z M96.7,37.7
	c-0.3-0.1-0.7-0.2-1-0.3c-2.1-0.7-4.4-1.2-6.7-1.7c-1.3-0.3-2.7-0.5-4-0.8c-0.7,0.7-1.5,1.4-2.1,2.1l0.5,0c3.2,0,6.4,0.1,9.5,0.3
	C94.1,37.5,95.4,37.6,96.7,37.7L96.7,37.7z M82,34.5c-5.3-0.7-10.7-1.2-15.7-1.5c-1.8,2-3.5,4-5,6.1c6-1.1,12.1-1.8,18.2-2
	C80.3,36.2,81.1,35.3,82,34.5L82,34.5z M63.2,32.9c-1.5-0.1-2.9-0.1-4.2-0.1c-2.8,2.7-5.4,5.6-7.7,8.6c2.2-0.6,4.4-1.1,6.7-1.6
	C59.5,37.4,61.3,35.1,63.2,32.9L63.2,32.9z M55.6,32.7l-1.2,0c-3.9,3.4-7.5,7-10.7,10.8c1.3-0.4,2.5-0.8,3.8-1.2
	C49.9,39,52.6,35.8,55.6,32.7L55.6,32.7z M96,40.1c-1.1-0.1-2.3-0.2-3.4-0.3c-3.1-0.3-6.2-0.4-9.3-0.3c-0.9,0-1.8,0-2.6,0
	c-0.5,0.7-1.1,1.3-1.5,2c3.2-0.5,6.4-0.9,9.6-1.1C91.2,40.2,93.6,40.1,96,40.1L96,40.1z M77.5,39.6c-6.1,0.3-12.2,1.1-18.1,2.3
	c-1.1,1.7-2,3.4-2.9,5.1c6.3-2.1,12.8-3.8,19.3-5C76.4,41.2,76.9,40.4,77.5,39.6L77.5,39.6z M56.2,42.6c-2.4,0.6-4.9,1.2-7.2,1.9
	c-1.6,2.3-3,4.6-4.3,7c2.9-1.2,5.8-2.3,8.8-3.4C54.2,46.2,55.2,44.4,56.2,42.6L56.2,42.6z M45.4,45.6c-1.5,0.5-3,1-4.5,1.5
	c-2.2,2.9-4.2,5.8-5.9,8.8c2.1-1,4.2-2,6.3-2.9C42.5,50.4,43.8,48,45.4,45.6L45.4,45.6z M88.3,42.8c-3.3,0.3-6.7,0.7-10,1.2
	c-0.3,0.1-0.6,0.1-1,0.2c-0.3,0.5-0.6,1-0.8,1.5c2.5-0.7,5.1-1.4,7.6-2C85.5,43.4,86.9,43.1,88.3,42.8L88.3,42.8z M74.3,44.8
	c-6.4,1.3-12.8,3.1-19,5.3l-0.2,0.4c-0.5,1.2-0.9,2.4-1.3,3.6c5.6-2.6,11.4-4.8,17.3-6.7c0.8-0.2,1.5-0.5,2.3-0.7
	C73.7,46,74,45.4,74.3,44.8L74.3,44.8z M52.3,51.1c-3.1,1.2-6.2,2.4-9.2,3.7c-0.1,0.3-0.3,0.6-0.4,0.9c-0.8,1.7-1.4,3.5-2,5.2
	c3.3-2,6.8-3.8,10.3-5.5C51.3,53.9,51.7,52.5,52.3,51.1L52.3,51.1z M39.8,56.2c-2.3,1.1-4.6,2.2-6.9,3.4c-0.7,1.4-1.3,2.7-1.9,4.1
	c-0.7,1.7-1.4,3.3-2,5c2.7-2.1,5.6-4,8.6-5.9C38.2,60.6,38.9,58.4,39.8,56.2L39.8,56.2z M72.3,49.4l-0.5,0.1
	C65.4,51.6,59.1,54.1,53,57c-0.3,1.4-0.5,2.7-0.7,4.1c-0.1,0.7-0.1,1.3-0.2,2c5-3,10.3-5.6,15.7-8c1.1-0.5,2.3-1,3.4-1.4
	C71.5,52.3,71.8,50.9,72.3,49.4L72.3,49.4z M50.3,58.4c-3.7,1.8-7.2,3.8-10.7,6c-0.4,1.6-0.8,3.3-1,4.9c-0.2,1.1-0.3,2.2-0.4,3.2
	c3.7-2.8,7.5-5.4,11.4-7.9c0-1.3,0.1-2.5,0.3-3.8C50,60,50.1,59.2,50.3,58.4L50.3,58.4z M36.7,66.2c-3.1,2.1-6.1,4.2-9,6.5
	c-0.7,2.4-1.2,4.7-1.5,7.1c-0.2,1-0.3,2.1-0.4,3.1c3.2-3,6.5-5.8,9.9-8.5c0.1-1.9,0.3-3.7,0.6-5.6C36.4,68,36.6,67.1,36.7,66.2
	L36.7,66.2z M24.6,75.3c-2.7,2.3-5.2,4.8-7.6,7.3c-0.9,3.6-1.5,7.3-1.8,11.1c2.6-2.9,5.3-5.6,8-8.3c0.1-2,0.3-4,0.6-6
	C24.1,78.1,24.3,76.7,24.6,75.3L24.6,75.3z M15,97.5c0,3.6,0.2,7.3,0.8,11c2.5-3.8,5.2-7.5,8-11.1c0-0.3-0.1-0.5-0.1-0.8l0,0
	c-0.4-2.6-0.5-5.1-0.6-7.7C20.4,91.6,17.7,94.5,15,97.5L15,97.5z M70.9,56.5c-0.7,0.3-1.5,0.6-2.2,0.9C62.9,59.9,57.4,62.8,52,66
	c0,1.5,0.1,3,0.3,4.5c3.2-2.2,6.4-4.4,9.8-6.3c2.9-1.7,5.8-3.3,8.8-4.8C70.8,58.4,70.8,57.5,70.9,56.5L70.9,56.5z M49.7,67.5
	c-4,2.5-7.9,5.3-11.6,8.2c0,2,0,4.1,0.3,6.2c3.8-3.5,7.7-6.7,11.8-9.8C49.9,70.5,49.7,69,49.7,67.5L49.7,67.5z M35.6,77.6
	c-3.5,2.8-6.8,5.8-10.1,8.9c-0.1,2.8,0,5.6,0.3,8.4c3.2-3.9,6.7-7.5,10.3-11l-0.1-0.4l0,0C35.8,81.5,35.7,79.5,35.6,77.6L35.6,77.6z
	 M191.7,18c-2.9-0.1-5.8,0-8.7,0.1c1.8,1.5,3.5,3,5.1,4.7c3.6,0.2,7.1,0.5,10.7,0.9C196.5,21.6,194.2,19.7,191.7,18L191.7,18z
	 M179.3,18.3c-3.8,0.3-7.6,0.7-11.3,1.3c1.1,1.1,2.2,2.2,3.2,3.4c4.4-0.3,8.8-0.4,13.3-0.3C182.9,21.1,181.1,19.6,179.3,18.3
	L179.3,18.3z M165,20.1c-1.5,0.3-2.9,0.6-4.4,1c-4.7,1.2-9.4,2.7-14,4.7c0.6,0.4,1.2,0.9,1.8,1.4c6.4-2,13-3.3,19.8-4
	C167.2,22.2,166.1,21.1,165,20.1L165,20.1z M144,27c-4.8,2.3-9.6,5-14.4,8.3c5.1-3,10.5-5.4,16-7.2C145.1,27.7,144.6,27.3,144,27
	L144,27z M9.1,125.5c0.1,0.4,0.1,0.7,0.2,1.1c1,5.2,2.6,10.3,4.7,15.2c1.4-4.9,3.1-9.6,4.9-14.3c-1.8-4.1-3.3-8.3-4.3-12.6
	C12.6,118.4,10.8,121.9,9.1,125.5L9.1,125.5z M16.4,112c0.2,0.7,0.3,1.5,0.5,2.2c0.8,3.5,1.9,6.9,3.3,10.3c2.1-4.9,4.5-9.6,7.2-14.1
	c-1.3-3.1-2.3-6.4-3.1-9.8C21.6,104.2,18.9,108,16.4,112L16.4,112z M71.2,61.9c-2.7,1.3-5.3,2.8-7.8,4.3c-3.6,2.1-7.1,4.4-10.5,6.9
	c0.1,0.4,0.2,0.8,0.3,1.1c0.3,1.4,0.8,2.7,1.2,4c0.6-0.5,1.3-1.1,1.9-1.6c4.9-4,10.2-7.7,15.8-11c-0.2-0.6-0.4-1.2-0.5-1.8
	c-0.1-0.4-0.2-0.9-0.3-1.4l0,0C71.2,62.3,71.2,62.1,71.2,61.9L71.2,61.9z M50.7,74.6c-4.2,3.1-8.2,6.5-12,10.1
	c0.1,0.4,0.2,0.9,0.3,1.3c0.4,2,1,3.9,1.6,5.8c3.6-4.2,7.5-8.2,11.8-12c-0.7-1.6-1.2-3.3-1.7-5.1L50.7,74.6L50.7,74.6z M36.7,86.7
	c-3.6,3.6-7.1,7.4-10.3,11.4c0.1,0.6,0.2,1.1,0.3,1.7c0.6,2.8,1.4,5.4,2.3,8c3-4.8,6.3-9.4,9.9-13.8C37.9,91.6,37.2,89.2,36.7,86.7
	L36.7,86.7z M205.3,27c2,2.3,3.8,4.7,5.4,7.2c3.7,0.9,7.4,1.9,10.9,3.1l0.1,0c-2.1-3-4.6-5.9-7.3-8.6C211.4,28,208.3,27.5,205.3,27
	L205.3,27z M201.6,26.4c-3.8-0.5-7.6-0.9-11.3-1.1c1.6,1.9,3,3.9,4.3,6c4.1,0.5,8.2,1.2,12.2,2l0.5,0.1
	C205.6,31,203.7,28.6,201.6,26.4L201.6,26.4z M186.9,25.1c-4.7-0.2-9.4-0.2-14,0.1c1.1,1.6,2.1,3.2,3,4.9c5.2,0,10.4,0.3,15.5,0.8
	C190.1,28.9,188.6,27,186.9,25.1L186.9,25.1z M170.1,25.5l-0.6,0c-6.5,0.6-12.9,1.8-19.1,3.6c0.9,0.9,1.8,1.9,2.5,3
	c6.7-1.2,13.5-1.8,20.3-1.9C172.3,28.5,171.3,27,170.1,25.5L170.1,25.5z M212.4,37.1c1.6,2.9,3,6,4.1,9.3c1.8,0.6,3.6,1.3,5.3,2
	c2.5,1,5,2.1,7.5,3.2c-1.4-3.8-3.2-7.4-5.4-10.9c-1-0.3-2-0.7-3-1C218.1,38.7,215.2,37.8,212.4,37.1L212.4,37.1z M209.1,36.3
	c-1-0.2-1.9-0.4-2.9-0.6c-3.4-0.7-6.8-1.3-10.2-1.8c1.3,2.4,2.3,4.9,3.2,7.5c4.9,1.1,9.7,2.5,14.3,4
	C212.4,42.2,210.9,39.2,209.1,36.3L209.1,36.3z M193.1,33.5c-5.3-0.6-10.6-1-16-1c0.8,1.8,1.4,3.6,1.9,5.5
	c5.9,0.6,11.7,1.5,17.5,2.7C195.6,38.3,194.4,35.8,193.1,33.5L193.1,33.5z M174.5,32.5c-6.8,0.1-13.5,0.6-20.1,1.7
	c0.6,1,1.1,2.1,1.5,3.2c6.8-0.4,13.7-0.3,20.6,0.3C175.9,36,175.3,34.2,174.5,32.5L174.5,32.5z M217.3,49.2c0.3,1.1,0.6,2.2,0.8,3.3
	c0.2,1.2,0.5,2.4,0.6,3.6l0,0c0.1,0.7,0.2,1.3,0.2,2c4.8,2.6,9.5,5.5,14,8.6c-0.3-2.6-0.8-5.1-1.4-7.6c-0.4-1.5-0.8-3-1.3-4.5
	c-3.1-1.5-6.2-2.8-9.5-4.1C219.7,50.1,218.5,49.7,217.3,49.2L217.3,49.2z M233.3,56.1c0.2,0.8,0.5,1.7,0.7,2.5
	c0.8,3.3,1.3,6.7,1.6,10.1c1.1,0.8,2.2,1.7,3.3,2.6c2.5,2,5,4.1,7.4,6.3c-0.2-1.4-0.4-2.9-0.7-4.3c-0.8-4.1-2-8.2-3.5-12.3
	c-1.7-1-3.4-2-5.1-3C235.7,57.3,234.5,56.7,233.3,56.1L233.3,56.1z M214.5,48.2c-4.7-1.6-9.6-3-14.6-4.2c0.2,0.7,0.3,1.4,0.5,2.1
	c0.2,1,0.4,2,0.5,3.1l0,0c0,0.3,0.1,0.7,0.1,1c5.3,1.9,10.3,4,15.3,6.5l0-0.3l0,0c-0.2-1.2-0.4-2.3-0.6-3.5
	C215.4,51.4,215,49.8,214.5,48.2L214.5,48.2z M197.3,43.4c-5.9-1.3-11.8-2.3-17.8-2.9l0,0.2l0,0c0.2,1.3,0.4,2.6,0.5,3.9
	c6.4,1.2,12.6,2.7,18.5,4.7c-0.1-0.9-0.3-1.9-0.5-2.8C197.9,45.5,197.6,44.5,197.3,43.4L197.3,43.4z M177,40.3
	c-6.8-0.6-13.7-0.8-20.4-0.4c0.1,0.2,0.1,0.5,0.2,0.7c0.1,0.4,0.2,0.9,0.3,1.4l0,0l0.1,0.4c7,0.2,13.8,0.9,20.4,2
	c-0.1-1-0.2-2.1-0.4-3.1l0,0C177.1,40.9,177.1,40.6,177,40.3L177,40.3z M154.2,40c-6.9,0.5-13.8,1.5-20.3,3.1
	c7.1-0.7,14.1-1,20.8-0.9c-0.1-0.4-0.1-0.8-0.2-1.1C154.4,40.8,154.3,40.4,154.2,40L154.2,40z M219.2,61c0.2,3.1,0.1,6.2-0.2,9.3
	c4.9,3.4,9.6,7.1,14.2,11.2c0.4-3.9,0.4-7.8,0.2-11.6C228.7,66.7,224,63.7,219.2,61L219.2,61z M235.7,71.8c0.2,3.9,0,7.8-0.5,11.7
	c3,2.8,5.8,5.7,8.6,8.8c0.9,1,1.7,2,2.6,3c0.5-4.7,0.6-9.5,0.2-14.2c-3-2.9-6.1-5.5-9.3-8.1C236.8,72.7,236.3,72.3,235.7,71.8
	L235.7,71.8z M249.2,83.7c0.2,4.8,0,9.5-0.7,14.2c3.2,3.9,6.2,8.1,9.1,12.4c0.7-5.5,0.8-11.2,0.4-17c-1.6-1.9-3.2-3.8-4.9-5.6
	C251.8,86.4,250.5,85,249.2,83.7L249.2,83.7z M260.6,96.6c0.2,5.8-0.1,11.4-1,16.9c1.4,2.2,2.8,4.5,4.1,6.9c0.8-6,1.1-12.1,0.8-18.5
	C263.3,100,262,98.3,260.6,96.6L260.6,96.6z M216.7,59.7c-4.9-2.6-10-4.8-15.3-6.7c0.2,2.4,0.1,4.8-0.1,7.1
	c5.3,2.6,10.5,5.5,15.4,8.7C216.9,65.8,216.9,62.7,216.7,59.7L216.7,59.7z M198.9,52.1c-6-2-12.3-3.7-18.7-4.9
	c0,1.6-0.1,3.2-0.2,4.7c6.6,1.9,13,4.3,19.1,7.1C199.1,56.7,199.1,54.4,198.9,52.1L198.9,52.1z M177.7,46.7
	c-6.5-1.1-13.3-1.8-20.3-2c0.1,0.8,0.1,1.7,0,2.5c6.9,0.9,13.6,2.2,20.1,4C177.7,49.8,177.8,48.2,177.7,46.7L177.7,46.7z
	 M155.1,44.7c-7.6-0.1-15.6,0.2-23.7,1.1c8.2-0.1,16.1,0.3,23.8,1.2C155.1,46.2,155.1,45.4,155.1,44.7L155.1,44.7z M218.6,73l0,0.3
	c-0.4,2.8-1.1,5.7-1.9,8.5c4.9,3.9,9.6,8.1,14.1,12.6c0.9-3.3,1.5-6.5,2-9.8C228.2,80.3,223.5,76.5,218.6,73L218.6,73z M234.9,86.5
	c-0.5,2.9-1.1,5.8-1.9,8.6c-0.1,0.4-0.2,0.8-0.3,1.2c3.8,4,7.5,8.2,11,12.7c1-3.4,1.7-6.9,2.3-10.4c-1.3-1.6-2.6-3.1-3.9-4.6
	C239.7,91.4,237.3,88.9,234.9,86.5L234.9,86.5z M248,101.1c-0.6,3.4-1.4,6.8-2.5,10.2c3.2,4.2,6.2,8.5,9.2,13
	c1-3.4,1.8-6.9,2.4-10.4C254.2,109.5,251.2,105.2,248,101.1L248,101.1z M259,117c-0.7,3.4-1.5,6.7-2.6,10c1.5,2.5,3.1,5,4.5,7.5
	c0.9-3.4,1.7-6.8,2.2-10.3C261.9,121.7,260.5,119.3,259,117L259,117z M216.4,71.5c-4.9-3.3-10-6.3-15.4-8.9
	c-0.1,0.4-0.1,0.8-0.2,1.1c-0.3,2.1-0.8,4.2-1.4,6.3c5.3,3.1,10.3,6.4,15.1,10.1c0.7-2.4,1.2-4.8,1.6-7.2
	C216.3,72.4,216.3,72,216.4,71.5L216.4,71.5z M198.7,61.5c-6.1-2.9-12.5-5.3-19.2-7.2c-0.3,1.9-0.8,3.7-1.3,5.5
	c6.7,2.6,13,5.6,19.1,9c0.5-1.8,0.9-3.6,1.2-5.4C198.6,62.8,198.7,62.1,198.7,61.5L198.7,61.5z M177.2,53.7
	c-6.4-1.8-13.1-3.1-19.9-4c-0.1,1.2-0.4,2.3-0.7,3.5c6.8,1.6,13.2,3.6,19.4,5.9C176.5,57.2,176.9,55.5,177.2,53.7L177.2,53.7z
	 M15.6,145.1c1.7,3.4,3.7,6.7,5.9,9.9c1.1-5.3,2.4-10.6,4.1-15.7c-2-2.8-3.7-5.8-5.2-8.8C18.5,135.2,16.9,140.1,15.6,145.1
	L15.6,145.1z M21.6,127.5c1.4,3,3,6,4.9,8.9c1.9-5.4,4.1-10.6,6.6-15.8c-1.7-2.4-3.2-4.9-4.4-7.6C26,117.7,23.6,122.5,21.6,127.5
	L21.6,127.5z M11.1,170.8c2.1,4.9,4.6,9.4,7.5,13.7c0-3.8,0.1-7.7,0.4-11.4c-2.5-3.4-4.8-7-6.9-10.8
	C11.7,165.1,11.3,167.9,11.1,170.8L11.1,170.8z M12.7,158.3c2,3.9,4.2,7.6,6.6,11.1c0.4-3.7,0.9-7.4,1.5-11.1
	c-2.3-3.1-4.4-6.3-6.2-9.6C13.9,151.8,13.2,155,12.7,158.3L12.7,158.3z M88.3,60c-4.2,1.8-8.2,3.8-12.1,5.9
	c-0.4,0.2-0.8,0.5-1.2,0.7c0.3,0.7,0.7,1.5,1.1,2.2C79.9,65.8,84,62.8,88.3,60L88.3,60z M72.9,67.9c-5.4,3.2-10.4,6.8-15.1,10.6
	c-0.8,0.7-1.7,1.4-2.5,2.1c0.8,1.6,1.6,3.2,2.6,4.7c4.8-5.1,10.1-9.9,15.8-14.6l0.4-0.4C73.7,69.5,73.3,68.7,72.9,67.9L72.9,67.9z
	 M53.4,82.2c-4.2,3.8-8.2,7.9-11.8,12.2c1,2.2,2.1,4.4,3.4,6.4c3-4.2,6.3-8.3,9.9-12.3c0.4-0.5,0.9-1,1.3-1.5
	C55.2,85.5,54.2,83.9,53.4,82.2L53.4,82.2z M39.9,96.5c-3.6,4.5-6.8,9.1-9.8,14c1.2,2.7,2.6,5.2,4.2,7.6c2.7-5.2,5.8-10.3,9.2-15.2
	C42.2,100.9,41,98.7,39.9,96.5L39.9,96.5z M23.4,157.6c2.7,3.4,5.6,6.7,8.9,9.8c0.5-5.8,1.3-11.5,2.4-17.1c-2-2-3.9-4.1-5.6-6.2
	c-0.6-0.8-1.2-1.6-1.8-2.4C25.7,146.9,24.4,152.2,23.4,157.6L23.4,157.6z M28.2,138.9c0.9,1.2,1.8,2.5,2.8,3.7
	c1.4,1.7,2.8,3.3,4.4,4.9c0.9-4,1.9-7.9,3.2-11.8c0.7-2.1,1.4-4.2,2.1-6.2c-2.2-2.1-4.1-4.3-5.9-6.7C32.2,128,30,133.4,28.2,138.9
	L28.2,138.9z M21.6,199c3.8,5.4,8.1,10.3,13,14.7c-0.5-3.1-1-6.2-1.3-9.2c-4.4-3.7-8.4-7.9-12.1-12.4
	C21.2,194.3,21.4,196.7,21.6,199L21.6,199z M21,187.9c3.5,4.7,7.5,9.1,11.8,12.9c-0.5-4.5-0.8-9.1-1-13.6
	c-3.8-3.4-7.4-7.2-10.6-11.4C21,179.9,20.9,183.9,21,187.9L21,187.9z M21.5,172.3c3.2,4.2,6.6,8.1,10.3,11.6c-0.1-4.5,0-9,0.3-13.5
	l-0.1-0.1c-3.4-3-6.4-6.2-9.1-9.6C22.2,164.6,21.8,168.4,21.5,172.3L21.5,172.3z M96.3,57.7c-6.8,4.1-13.2,8.5-19,13.1
	c0.5,0.7,1,1.3,1.5,1.9C84.2,67.6,90,62.6,96.3,57.7L96.3,57.7z M75.5,72.3l-0.2,0.2c-5.8,4.7-11.1,9.6-15.9,14.7
	c1,1.3,2,2.4,3.1,3.6c4.4-5.6,9.2-11,14.7-16.4C76.6,73.8,76,73.1,75.5,72.3L75.5,72.3z M57.7,89c-0.3,0.4-0.7,0.7-1,1.1
	c-3.7,4.2-7.1,8.4-10.3,12.8c1.3,1.8,2.7,3.5,4.3,5.2c3-5.2,6.4-10.3,10.3-15.4C59.8,91.5,58.7,90.3,57.7,89L57.7,89z M45,105
	c-3.4,5-6.4,10.1-9.1,15.4c1.7,2.3,3.6,4.6,5.7,6.7c2.2-5.7,4.8-11.2,7.9-16.7C47.9,108.6,46.4,106.9,45,105L45,105z M34.6,169.5
	c3.4,2.9,7,5.6,10.9,8.1c0.3-5.8,0.9-11.5,1.7-17.3c-3.8-2.5-7.3-5.2-10.5-8.1C35.7,157.9,35,163.7,34.6,169.5L34.6,169.5z
	 M37.4,149.5c3.1,3,6.5,5.7,10.3,8.2c1.1-6.4,2.5-12.9,4.3-19.3c-3.4-2.2-6.6-4.6-9.5-7.2c-0.6,1.7-1.2,3.4-1.7,5.1
	C39.4,140.7,38.3,145.1,37.4,149.5L37.4,149.5z M37.4,216.2c3.9,3.2,8,6.2,12.4,8.8c-0.8-3.4-1.5-6.9-2.1-10.4
	c-4.1-2.4-8.1-5-11.8-8C36.3,209.8,36.8,213,37.4,216.2L37.4,216.2z M35.5,203.2c3.7,3.1,7.6,5.8,11.7,8.3
	c-0.7-4.6-1.2-9.1-1.5-13.7c-4-2.5-7.8-5.2-11.3-8.3C34.6,194,34.9,198.6,35.5,203.2L35.5,203.2z M34.2,186.2
	c3.6,3.2,7.3,6,11.3,8.6c-0.2-4.8-0.3-9.6-0.1-14.5c-3.9-2.4-7.6-5.1-11-7.9C34.1,177,34.1,181.6,34.2,186.2L34.2,186.2z M92,64.3
	c-4.1,3.4-7.9,6.8-11.4,10.2c0.7,0.6,1.4,1.2,2.1,1.8C85.6,72.2,88.7,68.2,92,64.3L92,64.3z M78.8,76.1
	c-5.4,5.3-10.3,10.8-14.6,16.3c1.7,1.5,3.5,2.9,5.4,4.1c3-5.3,6.3-10.6,9.9-15.9c0.6-0.8,1.2-1.7,1.8-2.5
	C80.4,77.6,79.6,76.9,78.8,76.1L78.8,76.1z M62.8,94.4c-3.9,5.1-7.3,10.3-10.3,15.5c2.3,2.2,4.8,4.2,7.5,6.1
	c1.4-3.2,2.8-6.4,4.4-9.5c1.3-2.6,2.6-5.2,4-7.7C66.4,97.4,64.5,95.9,62.8,94.4L62.8,94.4z M51.3,112c-3,5.5-5.6,11.1-7.8,16.8
	c2.8,2.6,5.9,5,9.3,7.2c1.8-6,3.9-11.9,6.4-17.9C56.2,116.3,53.6,114.3,51.3,112L51.3,112z M215.9,84.2c-0.7,2-1.4,3.9-2.3,5.8
	c-0.7,1.7-1.6,3.4-2.4,5.1c5,4.6,9.5,9.5,13.7,14.7c2.1-4.2,3.8-8.4,5.1-12.7C225.5,92.4,220.8,88.1,215.9,84.2L215.9,84.2z
	 M231.9,98.9c-1.4,4.3-3.2,8.6-5.3,12.8c3.7,4.7,7.1,9.5,10.2,14.6c0.5-0.9,0.9-1.8,1.4-2.7c1.9-3.9,3.5-7.8,4.8-11.8
	C239.4,107.3,235.7,103,231.9,98.9L231.9,98.9z M244.6,114.1c-1.2,3.6-2.7,7.1-4.4,10.5c-0.7,1.4-1.4,2.7-2.1,4.1
	c2.9,5,5.6,10.2,7.9,15.5c3.1-5.4,5.7-11.1,7.7-17C250.9,122.7,247.8,118.3,244.6,114.1L244.6,114.1z M255.4,129.9
	c-2.1,5.9-4.9,11.6-8.2,17.1c1.5,3.6,2.9,7.4,4.1,11.1c3.6-6.4,6.5-13.2,8.7-20.4C258.6,135.1,257,132.5,255.4,129.9L255.4,129.9z
	 M261.7,140.6c-2.4,7.3-5.5,14.2-9.3,20.7c1.3,4.2,2.4,8.4,3.3,12.7c4.6-6.6,8.7-13.6,12.4-21.1C266,148.7,263.9,144.6,261.7,140.6
	L261.7,140.6z M213.9,82.6c-4.8-3.7-9.8-7.1-15.1-10.2c-0.6,1.9-1.3,3.7-2.1,5.5c-0.6,1.3-1.2,2.5-1.8,3.8c5.1,3.7,10,7.6,14.5,11.7
	c0.7-1.4,1.4-2.9,2.1-4.3C212.3,86.9,213.2,84.8,213.9,82.6L213.9,82.6z M196.6,71.2c-6.1-3.4-12.4-6.4-19.2-9
	c-0.2,0.5-0.4,1-0.5,1.4c-0.7,1.8-1.6,3.6-2.5,5.4c4,2.1,7.9,4.4,11.6,6.8c2.3,1.5,4.6,3,6.8,4.5c0.6-1.1,1.1-2.2,1.6-3.3
	C195.3,75.1,196,73.1,196.6,71.2L196.6,71.2z M175.2,61.3c-6.1-2.3-12.6-4.2-19.3-5.8c-0.2,0.5-0.4,1-0.5,1.4
	c-0.4,0.9-0.8,1.8-1.2,2.7c1.4,0.6,2.7,1.1,4.1,1.7c4.9,2.1,9.6,4.3,14.1,6.6c0.9-1.7,1.7-3.4,2.4-5.2
	C174.9,62.2,175.1,61.8,175.2,61.3L175.2,61.3z M47.9,179c3.9,2.3,8.1,4.4,12.5,6.3c-0.1-5.9,0.2-11.8,0.7-17.7
	c-0.9-0.4-1.8-0.8-2.7-1.2c-3.1-1.4-6.1-3-8.9-4.7C48.6,167.5,48.1,173.3,47.9,179L47.9,179z M49.9,159.1c3,1.8,6.1,3.5,9.5,5.1
	c0.7,0.3,1.3,0.6,2,0.9c0.7-6.7,1.8-13.4,3.1-20.1c-2.1-0.9-4.1-1.8-6.1-2.8c-1.5-0.7-2.9-1.5-4.2-2.4
	C52.3,146.2,50.9,152.7,49.9,159.1L49.9,159.1z M55.7,237.5c5.5,3.1,11.4,5.7,17.5,7.9c-1.3-2.8-2.4-5.6-3.5-8.5
	c-3-1.1-5.9-2.2-8.7-3.5c-2.6-1.2-5.1-2.4-7.6-3.7C54.1,232.4,54.9,234.9,55.7,237.5L55.7,237.5z M52.6,226.6c3,1.7,6.2,3.3,9.4,4.7
	c2.2,1,4.4,1.9,6.7,2.7c-1.3-3.7-2.4-7.5-3.4-11.2c-5.2-1.9-10.1-4.1-14.8-6.7C51,219.6,51.8,223.1,52.6,226.6L52.6,226.6z
	 M49.9,213.1c4.7,2.6,9.6,4.9,14.7,6.9c-1.1-4.6-2-9.2-2.6-13.9c-4.7-1.9-9.3-4.2-13.7-6.8C48.6,203.9,49.1,208.5,49.9,213.1
	L49.9,213.1z M48,196.4c4.3,2.6,8.8,5,13.5,6.9c-0.6-5.1-1-10.3-1.1-15.4c-4.5-1.8-8.7-3.9-12.6-6.2C47.6,186.6,47.7,191.5,48,196.4
	L48,196.4z M83.3,79.6c-0.6,0.8-1.2,1.7-1.8,2.5c-3.6,5.2-6.9,10.4-9.8,15.8c1.3,0.7,2.6,1.4,3.9,2.1c0.9,0.4,1.8,0.8,2.7,1.2
	c2.4-5.8,5.1-11.5,7.9-17.1c0.4-0.7,0.7-1.5,1.1-2.2C85.9,81.1,84.5,80.4,83.3,79.6L83.3,79.6z M70.5,99.9c-1.4,2.5-2.7,5-3.9,7.5
	c-1.6,3.3-3.1,6.5-4.5,9.8c1.5,0.9,3,1.8,4.5,2.6c1.3,0.7,2.7,1.3,4.1,1.9c1.1-3.4,2.3-6.8,3.5-10.1c1-2.8,2.1-5.5,3.2-8.3
	c-1-0.4-1.9-0.8-2.8-1.2C73.1,101.4,71.8,100.7,70.5,99.9L70.5,99.9z M61.1,119.5c-2.4,5.9-4.5,11.9-6.3,17.9
	c1.5,0.9,3.1,1.8,4.7,2.6c1.8,0.9,3.6,1.8,5.5,2.6c1.4-6.2,3-12.4,4.9-18.5c-1.5-0.7-3-1.3-4.4-2.1C64,121.2,62.5,120.4,61.1,119.5
	L61.1,119.5z M210,97.2c-2.1,3.6-4.5,7.2-7.1,10.6c4.6,5.2,9,10.7,13.1,16.4c2.9-3.9,5.5-8,7.8-12.2
	C219.5,106.9,214.9,101.9,210,97.2L210,97.2z M225.3,114.1c-2.3,4.2-4.9,8.3-7.9,12.2c3.4,4.9,6.6,10,9.5,15.2
	c3.2-4.1,6-8.4,8.4-12.7C232.3,123.7,229,118.8,225.3,114.1L225.3,114.1z M236.8,131.2c-2.5,4.3-5.4,8.6-8.6,12.6
	c2.7,5,5.2,10.2,7.4,15.4c3.3-4,6.3-8.1,9-12.4C242.3,141.4,239.7,136.2,236.8,131.2L236.8,131.2z M245.7,149.5
	c-2.7,4.2-5.8,8.3-9.1,12.2c1.6,4,3,8,4.3,12.1c3.3-4.1,6.2-8.4,8.9-12.8C248.6,157.1,247.2,153.3,245.7,149.5L245.7,149.5z
	 M250.7,164.1c-2.7,4.4-5.7,8.6-9,12.5c1.1,3.8,2,7.6,2.8,11.5c3.2-3.6,6.3-7.5,9.3-11.5C252.9,172.4,251.9,168.2,250.7,164.1
	L250.7,164.1z M254.5,179.9c-3,3.9-6.1,7.7-9.3,11.2c0.7,3.6,1.2,7.3,1.6,11c3-3.1,5.9-6.4,8.7-9.8c0.2-0.3,0.5-0.6,0.7-0.9
	C255.7,187.5,255.2,183.7,254.5,179.9L254.5,179.9z M208.2,95.5c-4.5-4.1-9.3-8-14.5-11.7c-1.7,3-3.6,5.9-5.8,8.8
	c4.6,4.3,9.1,8.7,13.3,13.4C203.8,102.6,206.1,99.1,208.2,95.5L208.2,95.5z M191.7,82.4c-2.3-1.6-4.6-3.1-7-4.6
	c-3.7-2.3-7.5-4.6-11.5-6.7c-1.2,2-2.6,4.1-4.1,6c2,1.5,4,3,5.9,4.6c3.7,3,7.4,6.1,11,9.3C188.2,88.2,190.1,85.3,191.7,82.4
	L191.7,82.4z M171.1,70c-4.4-2.3-9-4.5-13.8-6.5c-1.4-0.6-2.9-1.2-4.3-1.8c-0.7,1.1-1.4,2.1-2.1,3.2l0.1,0.1
	c5.5,3.3,11,6.9,16.3,10.8C168.7,73.8,170,71.9,171.1,70L171.1,70z M150.7,60.8c-6.7-2.6-13.7-4.9-21-7c6.4,2.9,12.8,6.2,19,9.9
	C149.5,62.7,150.1,61.8,150.7,60.8L150.7,60.8z M62.8,186.3c4.8,1.9,9.9,3.4,15.2,4.7c-0.3-4.8-0.4-9.7-0.3-14.6
	c0-1.2,0-2.4,0.1-3.6c-5.1-1.1-9.9-2.5-14.4-4.3C62.9,174.4,62.7,180.4,62.8,186.3L62.8,186.3z M63.6,166c4.4,1.7,9.2,3.2,14.2,4.3
	c0.3-6.7,0.9-13.5,1.7-20.5c-4.5-1-8.8-2.4-12.9-4C65.4,152.6,64.3,159.3,63.6,166L63.6,166z M80.7,255c3.4,1.3,6.9,2.4,10.5,3.4h0
	c2.3,0.6,4.7,1.2,7.1,1.7c-1.3-2.1-2.5-4.3-3.7-6.5c-5.8-1-11.4-2.4-16.8-4C78.7,251.3,79.7,253.1,80.7,255L80.7,255z M76.4,246.5
	c5.4,1.8,11.1,3.2,16.8,4.3c-1.4-2.8-2.7-5.6-3.9-8.5c-5.7-1.1-11.2-2.6-16.6-4.3C73.8,240.9,75,243.7,76.4,246.5L76.4,246.5z
	 M71.6,235.1c5.4,1.9,10.9,3.4,16.6,4.6c-1.5-3.7-2.8-7.5-3.9-11.4c-5.6-1.2-11-2.6-16.3-4.5C69,227.6,70.2,231.4,71.6,235.1
	L71.6,235.1z M67.2,221c5.2,1.9,10.7,3.4,16.3,4.6c-1.2-4.5-2.3-9-3.1-13.7c-5.5-1.3-10.8-2.9-15.9-4.8
	C65.2,211.8,66.1,216.4,67.2,221L67.2,221z M64.1,204.4c5.1,2,10.4,3.7,15.9,5c-0.8-5.2-1.5-10.5-1.8-15.9
	c-5.4-1.2-10.5-2.8-15.3-4.6C63,194.1,63.4,199.2,64.1,204.4L64.1,204.4z M103.2,59.2c-4.5,7-8.7,14.1-12.5,21.5
	c1.5,0.6,3,1,4.6,1.4C97.6,74.6,100.3,67,103.2,59.2L103.2,59.2z M89.5,82.8c-0.4,0.8-0.8,1.6-1.2,2.3c-2.8,5.5-5.4,11.2-7.8,16.8
	c2.6,0.9,5.3,1.7,8.1,2.3c1.7-6.5,3.7-13.1,5.8-19.9C92.8,83.9,91.1,83.4,89.5,82.8L89.5,82.8z M79.6,104.2
	c-1.1,2.7-2.2,5.5-3.2,8.3c-1.3,3.4-2.4,6.8-3.5,10.2c3.4,1.3,6.9,2.5,10.7,3.4c1.3-6.4,2.8-12.9,4.5-19.5
	C85.1,105.9,82.3,105.1,79.6,104.2L79.6,104.2z M72.1,125c-1.9,6.1-3.5,12.3-4.9,18.5c4,1.6,8.2,2.9,12.7,3.9
	c0.8-6.2,1.9-12.6,3.2-19C79.2,127.5,75.6,126.4,72.1,125L72.1,125z M201.3,109.7c-2.4,2.9-5.1,5.8-7.9,8.5c3.6,4.6,7,9.3,10.2,14.1
	c0.8,1.2,1.5,2.3,2.3,3.5c2.3-2.3,4.5-4.6,6.5-7c0.7-0.9,1.4-1.7,2.1-2.6C210.4,120.5,206,115,201.3,109.7L201.3,109.7z
	 M215.9,128.3c-0.6,0.7-1.1,1.4-1.7,2.1c-2.2,2.6-4.5,5.1-7,7.5c3.2,5.2,6.2,10.5,8.9,15.9c3.4-3.3,6.5-6.7,9.3-10.2
	C222.4,138.3,219.3,133.2,215.9,128.3L215.9,128.3z M226.6,145.8c-2.9,3.5-6.1,6.9-9.4,10.2c2.4,5.1,4.6,10.3,6.6,15.6
	c3.6-3.3,7-6.7,10.2-10.3C231.7,156,229.2,150.8,226.6,145.8L226.6,145.8z M234.8,163.8c-3.2,3.6-6.6,7-10.3,10.3
	c1.5,4.3,2.8,8.6,4,13.1c3.7-3.5,7.3-7.2,10.5-11.1C237.8,171.9,236.4,167.8,234.8,163.8L234.8,163.8z M239.8,178.8
	c-3.3,3.8-6.9,7.5-10.7,10.9c0.9,3.7,1.7,7.5,2.3,11.3c3.8-3.4,7.5-7,11-10.7C241.8,186.4,240.9,182.6,239.8,178.8L239.8,178.8z
	 M243.1,193.3c-3.6,3.7-7.3,7.3-11.1,10.6c0.5,3.5,1,7,1.3,10.6c3.9-3.2,7.7-6.6,11.3-10.2C244.2,200.6,243.7,196.9,243.1,193.3
	L243.1,193.3z M199.7,107.9c-4.2-4.7-8.7-9.2-13.3-13.4c-2.1,2.6-4.4,5.1-6.9,7.5c4.4,4.7,8.5,9.5,12.5,14.4
	C194.7,113.6,197.3,110.8,199.7,107.9L199.7,107.9z M184.6,92.8c-3.6-3.2-7.2-6.3-11-9.3c-2-1.6-4-3.1-6-4.6c-1.7,2-3.5,4-5.4,5.8
	c5.5,5,10.7,10.1,15.6,15.4C180.3,97.8,182.5,95.4,184.6,92.8L184.6,92.8z M165.7,77.6c-5.2-3.8-10.6-7.3-16-10.6l-0.4-0.2
	c-1.1,1.3-2.3,2.6-3.6,3.8c5.1,4.2,10,8.4,14.7,12.7C162.4,81.4,164.1,79.5,165.7,77.6L165.7,77.6z M80.4,191.5
	c1.7,0.4,3.5,0.7,5.2,1c3.7,0.6,7.5,1.1,11.5,1.4c-0.6-6-0.9-12.2-1.1-18.7c-5.6-0.3-10.8-1-15.8-2c0,1-0.1,2.1-0.1,3.1
	C80,181.5,80.1,186.6,80.4,191.5L80.4,191.5z M80.2,170.8c4.9,1,10.1,1.7,15.7,2c-0.2-6.6-0.1-13.4,0.1-20.5c-4.8-0.4-9.5-1.1-14-2
	C81.1,157.4,80.5,164.2,80.2,170.8L80.2,170.8z M101.5,260.6c5.2,0.9,10.5,1.5,15.9,1.9l0.5,0c-1.4-2.2-2.8-4.4-4.1-6.8
	c-5.5-0.3-10.9-0.8-16.2-1.7C98.8,256.2,100.1,258.4,101.5,260.6L101.5,260.6z M96.2,251.4c5.3,0.9,10.8,1.5,16.3,1.8
	c-1.4-2.7-2.7-5.5-3.9-8.4c-5.6-0.4-11.1-1-16.5-2C93.4,245.7,94.7,248.6,96.2,251.4L96.2,251.4z M91,240.2c5.4,1,11,1.7,16.6,2.1
	c-1.4-3.6-2.7-7.4-3.8-11.4c-5.7-0.4-11.3-1.2-16.9-2.2C88.1,232.7,89.5,236.5,91,240.2L91,240.2z M86.2,226.2
	c5.5,1.1,11.2,1.9,16.9,2.3c-1.2-4.3-2.2-8.8-3.1-13.5c-5.8-0.5-11.5-1.3-17.1-2.5C83.8,217.2,84.9,221.7,86.2,226.2L86.2,226.2z
	 M82.5,209.9c5.6,1.2,11.3,2.1,17.1,2.6c-0.9-5.2-1.6-10.6-2.2-16.2c-4.2-0.3-8.2-0.8-12.1-1.5c-1.6-0.3-3.1-0.6-4.7-0.9
	C81,199.4,81.6,204.8,82.5,209.9L82.5,209.9z M96.8,84.9c-2.1,6.7-4.1,13.3-5.8,19.8c2.7,0.5,5.6,0.8,8.5,0.9
	c0.2-1.9,0.5-3.9,0.7-5.8c0.6-4.6,1.2-9.4,1.9-14.2C100.3,85.5,98.5,85.2,96.8,84.9L96.8,84.9z M90.4,107
	c-1.7,6.7-3.3,13.2-4.6,19.6c3.7,0.8,7.5,1.3,11.4,1.6c0.5-6.6,1.2-13.3,1.9-20.2C96.2,107.8,93.3,107.5,90.4,107L90.4,107z
	 M85.4,128.9c-1.3,6.5-2.3,12.8-3.1,19c4.4,0.9,9.1,1.6,13.8,2c0.1-4.1,0.3-8.2,0.6-12.4c0.1-2.3,0.3-4.6,0.5-6.9
	C93.1,130.3,89.2,129.7,85.4,128.9L85.4,128.9z M191.6,119.9c-3.4,3.1-7,6-10.8,8.8c3.7,6.3,7.1,12.7,10.4,19.3
	c4.7-3.3,9-6.8,12.9-10.4c-0.8-1.3-1.6-2.6-2.5-3.8C198.5,129,195.2,124.4,191.6,119.9L191.6,119.9z M205.4,139.5
	c-4,3.7-8.4,7.3-13.1,10.6c2.7,5.6,5.2,11.3,7.5,17.1c0.3-0.2,0.7-0.5,1-0.7c4.8-3.4,9.3-7.1,13.4-11
	C211.5,150.1,208.6,144.8,205.4,139.5L205.4,139.5z M215.3,157.8c-4.1,3.8-8.4,7.3-13.1,10.7c-0.5,0.4-1,0.7-1.5,1.1
	c2,5.2,3.8,10.4,5.5,15.6c2.1-1.4,4.1-2.8,6.1-4.2c3.3-2.4,6.5-5,9.5-7.6C219.9,168,217.7,162.8,215.3,157.8L215.3,157.8z
	 M222.6,175.7c-2.9,2.5-5.9,4.8-9,7.1c-2.2,1.6-4.5,3.2-6.8,4.7c1.4,4.5,2.6,9.1,3.7,13.7c5.6-3.7,11-7.8,16-12.3
	C225.4,184.5,224.1,180.1,222.6,175.7L222.6,175.7z M227.2,191.6c-5,4.4-10.4,8.4-16,12.1c0.8,3.7,1.6,7.5,2.2,11.2
	c5.6-3.6,11-7.6,16.1-12C228.8,199.1,228,195.3,227.2,191.6L227.2,191.6z M229.8,205.7c-5.1,4.3-10.5,8.2-16.1,11.8
	c0.5,3.3,0.9,6.6,1.3,9.8c5.5-3.4,10.9-7.1,16-11.1C230.7,212.7,230.3,209.2,229.8,205.7L229.8,205.7z M231.2,219.1
	c-5.1,4-10.5,7.6-16,10.9c0.2,2.4,0.4,4.8,0.5,7.3c5.5-3.5,10.8-7.3,15.7-11.4C231.5,223.6,231.4,221.4,231.2,219.1L231.2,219.1z
	 M190.2,118c-3.9-4.9-8.1-9.7-12.5-14.4c-2.6,2.4-5.5,4.7-8.5,6.9c3.6,5.2,7.1,10.6,10.4,16.2C183.4,123.9,186.9,121,190.2,118
	L190.2,118z M176.1,101.8c-4.9-5.2-10.1-10.3-15.6-15.4c-1.8,1.6-3.7,3.2-5.7,4.7c1.3,1.6,2.7,3.3,4,5c3.1,4,6.2,8.1,9.1,12.4
	C170.8,106.3,173.5,104.1,176.1,101.8L176.1,101.8z M158.7,84.8c-4.7-4.3-9.6-8.5-14.7-12.7c-1.1,0.9-2.2,1.8-3.4,2.7
	c4.3,4.6,8.6,9.4,12.7,14.4C155.2,87.8,157,86.4,158.7,84.8L158.7,84.8z M99.5,194.1c5.5,0.4,11.3,0.4,17.3,0.1
	c-0.8-4.7-1.6-9.5-2.3-14.3c-0.2-1.6-0.4-3.1-0.6-4.7c-5.4,0.3-10.6,0.4-15.5,0.2C98.6,181.9,99,188.1,99.5,194.1L99.5,194.1z
	 M98.3,172.9c4.9,0.2,9.9,0.2,15.3-0.2c-0.8-6.6-1.5-13.3-2-20.2c-4.5,0.2-8.9,0.2-13.2,0C98.2,159.6,98.1,166.4,98.3,172.9
	L98.3,172.9z M120.9,262.6c6.5,0.2,13.1,0.1,19.7-0.5c-1.4-2.2-2.7-4.5-4-6.8c-6.7,0.6-13.4,0.7-20,0.5
	C117.9,258.2,119.3,260.5,120.9,262.6L120.9,262.6z M115.2,253.3c6.6,0.3,13.3,0.2,20.1-0.3c-1.4-2.7-2.7-5.4-3.9-8.3
	c-6.8,0.5-13.5,0.6-20.2,0.2C112.5,247.9,113.8,250.7,115.2,253.3L115.2,253.3z M110.2,242.5c6.6,0.4,13.4,0.3,20.2-0.1
	c-1.5-3.6-3-7.4-4.3-11.3c-6.6,0.4-13.3,0.4-19.8,0C107.5,235.1,108.8,238.9,110.2,242.5L110.2,242.5z M105.6,228.7
	c6.5,0.4,13.1,0.4,19.7,0.1c-1.4-4.4-2.7-8.9-3.9-13.5c-4.8,0.3-9.6,0.3-14.3,0.1c-1.5-0.1-3.1-0.1-4.6-0.2
	C103.4,219.9,104.4,224.4,105.6,228.7L105.6,228.7z M102,212.7c1.7,0.1,3.4,0.2,5.1,0.3c4.5,0.2,9,0.1,13.6-0.1
	c-1.3-5.3-2.5-10.7-3.5-16.3c-6,0.3-11.9,0.3-17.5-0.1C100.4,202.2,101.1,207.6,102,212.7L102,212.7z M104.5,85.8
	c-0.7,4.9-1.3,9.6-1.9,14.3c-0.2,1.9-0.5,3.7-0.7,5.6c2.5,0,5.1,0,7.6-0.2c-0.1-6.5,0-13.1,0-19.7C107.9,85.8,106.2,85.8,104.5,85.8
	L104.5,85.8z M101.6,108.1c-0.8,7-1.4,13.7-1.9,20.3c3.4,0.2,6.9,0.2,10.4,0c-0.3-6.8-0.4-13.6-0.5-20.6
	C106.9,108.1,104.2,108.1,101.6,108.1L101.6,108.1z M99.5,130.8c-0.2,2.3-0.3,4.6-0.5,6.9c-0.3,4.2-0.5,8.4-0.6,12.5
	c4.2,0.2,8.5,0.3,12.9,0c-0.5-6.3-0.9-12.8-1.1-19.4C106.6,131,103,131,99.5,130.8L99.5,130.8z M178.9,130c-3.6,2.5-7.5,4.8-11.5,7
	c3,6.5,5.9,13.2,8.5,20c4.7-2.4,9.2-4.9,13.3-7.7C186,142.7,182.5,136.3,178.9,130L178.9,130z M190.3,151.5
	c-4.2,2.8-8.7,5.4-13.5,7.8c2.3,5.9,4.4,11.9,6.4,18c5.1-2.6,10-5.5,14.6-8.6C195.4,162.8,192.9,157.1,190.3,151.5L190.3,151.5z
	 M198.6,170.9c-4.6,3.1-9.6,6-14.7,8.6c1.7,5.2,3.2,10.4,4.6,15.7c5.4-2.6,10.6-5.6,15.6-8.7C202.4,181.2,200.6,176,198.6,170.9
	L198.6,170.9z M204.8,188.9c-5,3.2-10.3,6.1-15.7,8.7c1.2,4.7,2.3,9.3,3.2,14c5.4-2.6,10.7-5.5,15.7-8.7l0,0l0.4-0.2
	C207.3,198,206.1,193.4,204.8,188.9L204.8,188.9z M209,205.1c-5.2,3.3-10.6,6.2-16.2,8.9c0.7,3.8,1.4,7.6,2,11.4
	c5.1-2.5,10.2-5.3,15.1-8.3c0.4-0.3,0.8-0.5,1.2-0.8C210.5,212.6,209.8,208.8,209,205.1L209,205.1z M211.5,218.9l-0.4,0.2
	c-5.2,3.2-10.5,6.1-16,8.7c0.4,3.1,0.8,6.3,1.2,9.4c5.6-2.6,11.1-5.4,16.4-8.6C212.4,225.5,212,222.2,211.5,218.9L211.5,218.9z
	 M213,231.4c-5.3,3.1-10.8,5.9-16.4,8.5c0.2,2.5,0.4,5,0.6,7.5c5.6-2.6,11.1-5.4,16.3-8.6C213.4,236.3,213.2,233.8,213,231.4
	L213,231.4z M177.6,128c-3.3-5.5-6.8-10.9-10.4-16.2c-3,2.1-6.2,4-9.5,5.8c3,5.6,5.8,11.4,8.6,17.3
	C170.3,132.7,174.1,130.4,177.6,128L177.6,128z M165.9,109.8c-2.9-4.2-6-8.3-9.1-12.3c-1.3-1.7-2.7-3.4-4-5
	c-2.2,1.5-4.4,2.9-6.8,4.3c1.5,2.6,3.1,5.1,4.6,7.7c2.1,3.6,4.1,7.2,6.1,11C159.9,113.7,163,111.8,165.9,109.8L165.9,109.8z
	 M151.3,90.7c-4.2-5-8.4-9.9-12.8-14.4c-1.3,0.9-2.6,1.7-4,2.4l0.6,0.9c3.3,4.9,6.5,9.9,9.7,15.1C147,93.4,149.2,92.1,151.3,90.7
	L151.3,90.7z M136.9,74.5c-5.5-5.7-11.2-11.1-16.8-15.9c4.4,5.7,8.8,11.7,13.1,18.1C134.4,76,135.7,75.2,136.9,74.5L136.9,74.5z
	 M119.2,194.1c6-0.4,12.1-1.1,18.5-2.1c-1.4-6.2-2.8-12.6-4.2-19.2c-6,1-11.7,1.8-17.3,2.2c0.2,1.5,0.4,3.1,0.6,4.6
	C117.6,184.5,118.3,189.4,119.2,194.1L119.2,194.1z M116,172.6c5.5-0.4,11.1-1.1,17.1-2.2c-1.3-6.6-2.6-13.2-3.9-20
	c-2.1,0.4-4.1,0.7-6.2,1c-3,0.4-6.1,0.7-9.1,1C114.5,159.3,115.1,166,116,172.6L116,172.6z M143.2,261.9c5.2-0.5,10.4-1.3,15.6-2.3
	c-1-2.2-2-4.5-2.9-6.9c-1.6,0.3-3.3,0.6-4.9,0.9c-3.9,0.6-7.9,1.2-11.8,1.5C140.5,257.4,141.8,259.7,143.2,261.9L143.2,261.9z
	 M137.9,252.8c4.2-0.4,8.4-0.9,12.7-1.6c1.5-0.2,2.9-0.5,4.4-0.8c-1.1-2.7-2.1-5.5-3.1-8.3c-5.7,1.1-11.5,1.9-17.2,2.4l-0.7,0.1
	C135.2,247.4,136.5,250.1,137.9,252.8L137.9,252.8z M132.9,242.2c0.5,0,1-0.1,1.5-0.1c5.5-0.5,11-1.3,16.6-2.3
	c-1.3-3.6-2.5-7.4-3.7-11.2c-6.2,1.1-12.5,1.9-18.8,2.4C129.9,234.8,131.4,238.6,132.9,242.2L132.9,242.2z M127.8,228.6
	c6.3-0.4,12.6-1.2,18.8-2.3c-1.3-4.4-2.6-8.9-3.9-13.6c-6.3,1.1-12.6,2-19,2.4C125,219.7,126.4,224.3,127.8,228.6L127.8,228.6z
	 M123.2,212.7c6.3-0.4,12.7-1.2,19-2.4c-1.4-5.2-2.7-10.6-4-16.1c-6.4,1.1-12.6,1.8-18.6,2.2C120.7,202.1,121.9,207.5,123.2,212.7
	L123.2,212.7z M112.6,59c-0.3,8.1-0.5,16.1-0.6,24.1c1.4-0.1,2.8-0.3,4.2-0.6c0.2,0,0.5-0.1,0.7-0.1C115.5,74.6,114.1,66.8,112.6,59
	L112.6,59z M112,85.5c-0.1,6.6-0.1,13.2,0,19.7c1.8-0.2,3.7-0.5,5.6-0.8c1.1-0.2,2.2-0.4,3.2-0.6c-1.1-6.3-2.2-12.7-3.4-19
	c-0.2,0-0.5,0.1-0.7,0.1C115.1,85.2,113.5,85.4,112,85.5L112,85.5z M112,107.6c0.1,7,0.3,13.8,0.5,20.6c2.4-0.2,4.8-0.4,7.3-0.8
	c1.7-0.2,3.4-0.5,5-0.8c-1.1-6.3-2.3-12.8-3.4-19.2l-0.2-1.3c-1.1,0.2-2.2,0.5-3.2,0.6C115.9,107.1,113.9,107.4,112,107.6L112,107.6
	z M112.6,130.7c0.3,6.6,0.7,13,1.1,19.4c2.9-0.2,5.9-0.5,8.9-0.9c2-0.3,4-0.6,6-1c-1.2-6.3-2.3-12.6-3.5-19.1
	c-1.7,0.3-3.4,0.6-5.1,0.8C117.6,130.2,115.1,130.5,112.6,130.7L112.6,130.7z M165.2,138.1c-4.2,2.1-8.6,4.1-13.1,5.8
	c2.2,6.7,4.4,13.4,6.4,20.2c5.3-1.8,10.4-3.8,15.2-6.1C171.1,151.3,168.2,144.6,165.2,138.1L165.2,138.1z M174.6,160.3
	c-4.8,2.3-10,4.4-15.4,6.2c1.8,6.2,3.6,12.4,5.3,18.7c5.7-2,11.2-4.3,16.4-6.9C179,172.2,176.9,166.2,174.6,160.3L174.6,160.3z
	 M181.7,180.6c-5.3,2.6-10.8,4.9-16.5,6.9c1.4,5.2,2.8,10.5,4,15.8c5.8-2,11.5-4.4,17-7C184.9,191,183.4,185.8,181.7,180.6
	L181.7,180.6z M186.9,198.6c-5.5,2.6-11.2,4.9-17.1,7c1.1,4.6,2.2,9.2,3.2,13.9c5.8-2,11.5-4.3,17.1-6.8
	C189.1,207.9,188.1,203.3,186.9,198.6L186.9,198.6z M190.6,215.1c-5.5,2.6-11.2,4.8-17,6.8c0.8,3.8,1.6,7.6,2.4,11.4
	c5.6-1.9,11.2-4.2,16.6-6.7C191.9,222.7,191.3,218.9,190.6,215.1L190.6,215.1z M192.9,229c-5.4,2.5-10.9,4.7-16.5,6.6
	c0.6,2.9,1.1,5.9,1.7,8.9c5.4-1.8,10.7-3.8,15.9-6.1C193.7,235.2,193.3,232.1,192.9,229L192.9,229z M194.2,240.8
	c-5.2,2.2-10.4,4.2-15.7,6c0.4,2.4,0.9,4.8,1.3,7.2c5.1-1.7,10.1-3.6,15-5.7C194.7,245.8,194.5,243.3,194.2,240.8L194.2,240.8z
	 M164.2,136c-2.7-5.9-5.6-11.6-8.6-17.3c-3.4,1.7-6.9,3.3-10.6,4.7c2.2,6,4.3,12.1,6.4,18.3C155.8,140,160.1,138.1,164.2,136
	L164.2,136z M154.5,116.6c-2-3.7-4-7.3-6-10.9c-1.5-2.6-3-5.2-4.6-7.8c-2.3,1.2-4.8,2.4-7.3,3.4c1,2.6,2.1,5.2,3.1,7.8
	c1.5,4,3,8,4.5,12C147.8,119.8,151.2,118.2,154.5,116.6L154.5,116.6z M142.7,95.9c-3.1-5.1-6.3-10.1-9.5-14.9l-0.8-1.2
	c-1.3,0.6-2.6,1.2-3.9,1.7l0.2,0.4c2.4,5.6,4.8,11.4,7.1,17.2C138.1,98.1,140.4,97,142.7,95.9L142.7,95.9z M131,77.8
	c-3.6-5.2-7.2-10.3-10.9-15.1c2.5,5.5,5,11,7.4,16.7C128.7,78.8,129.9,78.3,131,77.8L131,77.8z M140,191.5c0.7-0.1,1.5-0.3,2.2-0.4
	c6.9-1.3,13.6-3.1,20-5.2c-1.7-6.3-3.5-12.5-5.3-18.7c-3.4,1.1-6.8,2-10.4,2.9c-3.6,0.9-7.2,1.6-10.7,2.3
	C137.2,178.9,138.6,185.3,140,191.5L140,191.5z M135.4,170c3.5-0.6,7-1.4,10.6-2.3c3.5-0.8,6.9-1.8,10.3-2.8
	c-2-6.8-4.2-13.5-6.4-20.1c-5.8,2.1-11.9,3.9-18.3,5.2l-0.2,0C132.8,156.8,134.1,163.5,135.4,170L135.4,170z M161.2,259
	c5.4-1.1,10.9-2.6,16.2-4.2c-0.4-2.4-0.8-4.8-1.3-7.3c-5.9,1.9-11.9,3.4-17.9,4.6C159.2,254.5,160.2,256.8,161.2,259L161.2,259z
	 M157.4,249.9c6.2-1.3,12.3-2.8,18.4-4.8c-0.5-3-1.1-5.9-1.7-8.8c-6.6,2.2-13.2,3.9-19.9,5.3C155.2,244.5,156.3,247.2,157.4,249.9
	L157.4,249.9z M153.4,239.3c6.8-1.4,13.5-3.2,20.2-5.4c-0.8-3.8-1.6-7.6-2.4-11.4c-7.1,2.3-14.3,4.1-21.5,5.5
	C150.9,232,152.1,235.7,153.4,239.3L153.4,239.3z M149,225.8c7.3-1.4,14.6-3.3,21.7-5.6c-1-4.7-2.1-9.3-3.2-13.9
	c-1.4,0.5-2.9,0.9-4.3,1.4c-5.9,1.8-12,3.3-18,4.5C146.4,216.9,147.7,221.4,149,225.8L149,225.8z M144.5,209.9
	c6-1.2,12.1-2.7,18-4.5c1.5-0.5,3-0.9,4.5-1.4c-1.3-5.3-2.6-10.6-4-15.8c-6.5,2.1-13.2,3.9-20.2,5.3c-0.7,0.1-1.4,0.3-2.1,0.4
	C141.9,199.4,143.2,204.7,144.5,209.9L144.5,209.9z M119.7,84.2c1.1,6.4,2.3,12.7,3.4,19l0,0c3.6-0.9,7.1-2,10.4-3.3
	c-2.3-5.8-4.7-11.5-7.1-17.1l-0.2-0.5c-2,0.7-4.1,1.3-6.2,1.8L119.7,84.2L119.7,84.2z M123.5,105.6l0.3,1.4
	c1.1,6.4,2.3,12.8,3.4,19.2c5.1-1.1,10.1-2.5,14.8-4.2c-1.5-4-3-8-4.5-12c-1-2.6-2-5.2-3.1-7.8c-3.5,1.3-7,2.5-10.7,3.4L123.5,105.6
	L123.5,105.6z M127.6,128.5c1.2,6.4,2.3,12.8,3.5,19.1l0.1,0c6.2-1.3,12.2-3,18-5.1c-2.1-6.2-4.2-12.2-6.4-18.3
	C137.9,126,132.8,127.4,127.6,128.5L127.6,128.5z"/>
<radialGradient id="SVGID_3_" cx="-155.4448" cy="561.6758" r="7.6401" gradientTransform="matrix(3.0407 -0.7327 0.7537 3.2925 163.7617 -1914.5469)" gradientUnits="userSpaceOnUse">
	<stop  offset="0.13" style="stop-color:#FFFFFF"/>
	<stop  offset="0.3076" style="stop-color:#FFFFFF"/>
	<stop  offset="0.4852" style="stop-color:#FFFFFF"/>
	<stop  offset="0.87" style="stop-color:#D4D6D8"/>
</radialGradient>
<path class="st4" d="M108.8,32.1c11.9-2.9,23,1.3,24.8,9.3c1.8,8-6.3,16.8-18.2,19.6c-11.9,2.9-23-1.3-24.8-9.3
	C88.8,43.7,96.9,34.9,108.8,32.1z"/>
</svg>
